<svg width="509" height="468" viewBox="0 0 509 468" fill="none" xmlns="http://www.w3.org/2000/svg">
<g opacity="0.1">
<g clip-path="url(#clip0_41_1236)">
<path d="M274.811 372.662C274.811 375.645 272.408 378.058 269.436 378.058C266.464 378.058 264.051 375.645 264.051 372.662C264.051 369.678 266.454 367.266 269.426 367.266C272.398 367.266 274.811 369.678 274.811 372.662Z" fill="#F1416C"/>
<path d="M302.759 378.058C305.727 378.058 308.134 375.642 308.134 372.662C308.134 369.682 305.727 367.266 302.759 367.266C299.79 367.266 297.384 369.682 297.384 372.662C297.384 375.642 299.79 378.058 302.759 378.058Z" fill="#F1416C"/>
<path d="M336.099 378.058C339.067 378.058 341.474 375.642 341.474 372.662C341.474 369.682 339.067 367.266 336.099 367.266C333.13 367.266 330.724 369.682 330.724 372.662C330.724 375.642 333.13 378.058 336.099 378.058Z" fill="#F1416C"/>
<path d="M374.795 372.662C374.795 375.645 372.392 378.058 369.42 378.058C366.448 378.058 364.045 375.645 364.045 372.662C364.045 369.678 366.448 367.266 369.42 367.266C372.392 367.266 374.795 369.678 374.795 372.662Z" fill="#F1416C"/>
<path d="M274.811 402.624C274.811 405.607 272.408 408.019 269.436 408.019C266.464 408.019 264.051 405.607 264.051 402.624C264.051 399.64 266.454 397.228 269.426 397.228C272.398 397.228 274.811 399.64 274.811 402.624Z" fill="#F1416C"/>
<path d="M302.759 408.019C305.727 408.019 308.134 405.604 308.134 402.624C308.134 399.644 305.727 397.228 302.759 397.228C299.79 397.228 297.384 399.644 297.384 402.624C297.384 405.604 299.79 408.019 302.759 408.019Z" fill="#F1416C"/>
<path d="M336.099 408.019C339.067 408.019 341.474 405.604 341.474 402.624C341.474 399.644 339.067 397.228 336.099 397.228C333.13 397.228 330.724 399.644 330.724 402.624C330.724 405.604 333.13 408.019 336.099 408.019Z" fill="#F1416C"/>
<path d="M374.795 402.624C374.795 405.607 372.392 408.019 369.42 408.019C366.448 408.019 364.045 405.607 364.045 402.624C364.045 399.64 366.448 397.228 369.42 397.228C372.392 397.228 374.795 399.64 374.795 402.624Z" fill="#F1416C"/>
<path d="M274.811 432.586C274.811 435.57 272.408 437.982 269.436 437.982C266.464 437.982 264.051 435.57 264.051 432.586C264.051 429.603 266.454 427.19 269.426 427.19C272.398 427.19 274.811 429.603 274.811 432.586Z" fill="#F1416C"/>
<path d="M302.759 437.982C305.727 437.982 308.134 435.566 308.134 432.586C308.134 429.606 305.727 427.19 302.759 427.19C299.79 427.19 297.384 429.606 297.384 432.586C297.384 435.566 299.79 437.982 302.759 437.982Z" fill="#F1416C"/>
<path d="M336.099 437.982C339.067 437.982 341.474 435.566 341.474 432.586C341.474 429.606 339.067 427.19 336.099 427.19C333.13 427.19 330.724 429.606 330.724 432.586C330.724 435.566 333.13 437.982 336.099 437.982Z" fill="#F1416C"/>
<path d="M374.795 432.586C374.795 435.57 372.392 437.982 369.42 437.982C366.448 437.982 364.045 435.57 364.045 432.586C364.045 429.603 366.448 427.19 369.42 427.19C372.392 427.19 374.795 429.603 374.795 432.586Z" fill="#F1416C"/>
<path d="M274.811 462.548C274.811 465.532 272.408 467.944 269.436 467.944C266.464 467.944 264.051 465.521 264.051 462.548C264.051 459.575 266.454 457.152 269.426 457.152C272.398 457.152 274.811 459.565 274.811 462.548Z" fill="#F1416C"/>
<path d="M302.759 467.944C305.727 467.944 308.134 465.528 308.134 462.548C308.134 459.568 305.727 457.152 302.759 457.152C299.79 457.152 297.384 459.568 297.384 462.548C297.384 465.528 299.79 467.944 302.759 467.944Z" fill="#F1416C"/>
<path d="M336.099 467.944C339.067 467.944 341.474 465.528 341.474 462.548C341.474 459.568 339.067 457.152 336.099 457.152C333.13 457.152 330.724 459.568 330.724 462.548C330.724 465.528 333.13 467.944 336.099 467.944Z" fill="#F1416C"/>
<path d="M374.795 462.548C374.795 465.532 372.392 467.944 369.42 467.944C366.448 467.944 364.045 465.532 364.045 462.548C364.045 459.565 366.448 457.152 369.42 457.152C372.392 457.152 374.795 459.565 374.795 462.548Z" fill="#F1416C"/>
</g>
<g clip-path="url(#clip1_41_1236)">
<path d="M274.811 248.858C274.811 251.842 272.408 254.254 269.436 254.254C266.464 254.254 264.051 251.842 264.051 248.858C264.051 245.875 266.454 243.462 269.426 243.462C272.398 243.462 274.811 245.875 274.811 248.858Z" fill="#F1416C"/>
<path d="M302.759 254.254C305.727 254.254 308.134 251.838 308.134 248.858C308.134 245.878 305.727 243.462 302.759 243.462C299.79 243.462 297.384 245.878 297.384 248.858C297.384 251.838 299.79 254.254 302.759 254.254Z" fill="#F1416C"/>
<path d="M336.099 254.254C339.067 254.254 341.474 251.838 341.474 248.858C341.474 245.878 339.067 243.462 336.099 243.462C333.13 243.462 330.724 245.878 330.724 248.858C330.724 251.838 333.13 254.254 336.099 254.254Z" fill="#F1416C"/>
<path d="M374.795 248.858C374.795 251.842 372.392 254.254 369.42 254.254C366.448 254.254 364.045 251.842 364.045 248.858C364.045 245.875 366.448 243.462 369.42 243.462C372.392 243.462 374.795 245.875 374.795 248.858Z" fill="#F1416C"/>
<path d="M274.811 278.82C274.811 281.804 272.408 284.216 269.436 284.216C266.464 284.216 264.051 281.804 264.051 278.82C264.051 275.837 266.454 273.424 269.426 273.424C272.398 273.424 274.811 275.837 274.811 278.82Z" fill="#F1416C"/>
<path d="M302.759 284.216C305.727 284.216 308.134 281.8 308.134 278.82C308.134 275.84 305.727 273.424 302.759 273.424C299.79 273.424 297.384 275.84 297.384 278.82C297.384 281.8 299.79 284.216 302.759 284.216Z" fill="#F1416C"/>
<path d="M336.099 284.216C339.067 284.216 341.474 281.8 341.474 278.82C341.474 275.84 339.067 273.424 336.099 273.424C333.13 273.424 330.724 275.84 330.724 278.82C330.724 281.8 333.13 284.216 336.099 284.216Z" fill="#F1416C"/>
<path d="M374.795 278.82C374.795 281.804 372.392 284.216 369.42 284.216C366.448 284.216 364.045 281.804 364.045 278.82C364.045 275.837 366.448 273.424 369.42 273.424C372.392 273.424 374.795 275.837 374.795 278.82Z" fill="#F1416C"/>
<path d="M274.811 308.782C274.811 311.766 272.408 314.178 269.436 314.178C266.464 314.178 264.051 311.766 264.051 308.782C264.051 305.799 266.454 303.387 269.426 303.387C272.398 303.387 274.811 305.799 274.811 308.782Z" fill="#F1416C"/>
<path d="M302.759 314.178C305.727 314.178 308.134 311.762 308.134 308.782C308.134 305.802 305.727 303.387 302.759 303.387C299.79 303.387 297.384 305.802 297.384 308.782C297.384 311.762 299.79 314.178 302.759 314.178Z" fill="#F1416C"/>
<path d="M336.099 314.178C339.067 314.178 341.474 311.762 341.474 308.782C341.474 305.802 339.067 303.387 336.099 303.387C333.13 303.387 330.724 305.802 330.724 308.782C330.724 311.762 333.13 314.178 336.099 314.178Z" fill="#F1416C"/>
<path d="M374.795 308.782C374.795 311.766 372.392 314.178 369.42 314.178C366.448 314.178 364.045 311.766 364.045 308.782C364.045 305.799 366.448 303.387 369.42 303.387C372.392 303.387 374.795 305.799 374.795 308.782Z" fill="#F1416C"/>
<path d="M274.811 338.744C274.811 341.728 272.408 344.14 269.436 344.14C266.464 344.14 264.051 341.717 264.051 338.744C264.051 335.771 266.454 333.349 269.426 333.349C272.398 333.349 274.811 335.761 274.811 338.744Z" fill="#F1416C"/>
<path d="M302.759 344.14C305.727 344.14 308.134 341.724 308.134 338.744C308.134 335.764 305.727 333.349 302.759 333.349C299.79 333.349 297.384 335.764 297.384 338.744C297.384 341.724 299.79 344.14 302.759 344.14Z" fill="#F1416C"/>
<path d="M336.099 344.14C339.067 344.14 341.474 341.724 341.474 338.744C341.474 335.764 339.067 333.349 336.099 333.349C333.13 333.349 330.724 335.764 330.724 338.744C330.724 341.724 333.13 344.14 336.099 344.14Z" fill="#F1416C"/>
<path d="M374.795 338.744C374.795 341.728 372.392 344.14 369.42 344.14C366.448 344.14 364.045 341.728 364.045 338.744C364.045 335.761 366.448 333.349 369.42 333.349C372.392 333.349 374.795 335.761 374.795 338.744Z" fill="#F1416C"/>
</g>
<g clip-path="url(#clip2_41_1236)">
<path d="M408.679 372.662C408.679 375.645 406.277 378.058 403.304 378.058C400.332 378.058 397.919 375.645 397.919 372.662C397.919 369.678 400.322 367.266 403.294 367.266C406.266 367.266 408.679 369.678 408.679 372.662Z" fill="#F1416C"/>
<path d="M436.627 378.058C439.595 378.058 442.002 375.642 442.002 372.662C442.002 369.682 439.595 367.266 436.627 367.266C433.658 367.266 431.252 369.682 431.252 372.662C431.252 375.642 433.658 378.058 436.627 378.058Z" fill="#F1416C"/>
<path d="M469.967 378.058C472.935 378.058 475.342 375.642 475.342 372.662C475.342 369.682 472.935 367.266 469.967 367.266C466.998 367.266 464.592 369.682 464.592 372.662C464.592 375.642 466.998 378.058 469.967 378.058Z" fill="#F1416C"/>
<path d="M508.663 372.662C508.663 375.645 506.26 378.058 503.288 378.058C500.316 378.058 497.913 375.645 497.913 372.662C497.913 369.678 500.316 367.266 503.288 367.266C506.26 367.266 508.663 369.678 508.663 372.662Z" fill="#F1416C"/>
<path d="M408.679 402.624C408.679 405.607 406.277 408.019 403.304 408.019C400.332 408.019 397.919 405.607 397.919 402.624C397.919 399.64 400.322 397.228 403.294 397.228C406.266 397.228 408.679 399.64 408.679 402.624Z" fill="#F1416C"/>
<path d="M436.627 408.019C439.595 408.019 442.002 405.604 442.002 402.624C442.002 399.644 439.595 397.228 436.627 397.228C433.658 397.228 431.252 399.644 431.252 402.624C431.252 405.604 433.658 408.019 436.627 408.019Z" fill="#F1416C"/>
<path d="M469.967 408.019C472.935 408.019 475.342 405.604 475.342 402.624C475.342 399.644 472.935 397.228 469.967 397.228C466.998 397.228 464.592 399.644 464.592 402.624C464.592 405.604 466.998 408.019 469.967 408.019Z" fill="#F1416C"/>
<path d="M508.663 402.624C508.663 405.607 506.26 408.019 503.288 408.019C500.316 408.019 497.913 405.607 497.913 402.624C497.913 399.64 500.316 397.228 503.288 397.228C506.26 397.228 508.663 399.64 508.663 402.624Z" fill="#F1416C"/>
<path d="M408.679 432.586C408.679 435.57 406.277 437.982 403.304 437.982C400.332 437.982 397.919 435.57 397.919 432.586C397.919 429.603 400.322 427.19 403.294 427.19C406.266 427.19 408.679 429.603 408.679 432.586Z" fill="#F1416C"/>
<path d="M436.627 437.982C439.595 437.982 442.002 435.566 442.002 432.586C442.002 429.606 439.595 427.19 436.627 427.19C433.658 427.19 431.252 429.606 431.252 432.586C431.252 435.566 433.658 437.982 436.627 437.982Z" fill="#F1416C"/>
<path d="M469.967 437.982C472.935 437.982 475.342 435.566 475.342 432.586C475.342 429.606 472.935 427.19 469.967 427.19C466.998 427.19 464.592 429.606 464.592 432.586C464.592 435.566 466.998 437.982 469.967 437.982Z" fill="#F1416C"/>
<path d="M508.663 432.586C508.663 435.57 506.26 437.982 503.288 437.982C500.316 437.982 497.913 435.57 497.913 432.586C497.913 429.603 500.316 427.19 503.288 427.19C506.26 427.19 508.663 429.603 508.663 432.586Z" fill="#F1416C"/>
<path d="M408.679 462.548C408.679 465.532 406.277 467.944 403.304 467.944C400.332 467.944 397.919 465.521 397.919 462.548C397.919 459.575 400.322 457.152 403.294 457.152C406.266 457.152 408.679 459.565 408.679 462.548Z" fill="#F1416C"/>
<path d="M436.627 467.944C439.595 467.944 442.002 465.528 442.002 462.548C442.002 459.568 439.595 457.152 436.627 457.152C433.658 457.152 431.252 459.568 431.252 462.548C431.252 465.528 433.658 467.944 436.627 467.944Z" fill="#F1416C"/>
<path d="M469.967 467.944C472.935 467.944 475.342 465.528 475.342 462.548C475.342 459.568 472.935 457.152 469.967 457.152C466.998 457.152 464.592 459.568 464.592 462.548C464.592 465.528 466.998 467.944 469.967 467.944Z" fill="#F1416C"/>
<path d="M508.663 462.548C508.663 465.532 506.26 467.944 503.288 467.944C500.316 467.944 497.913 465.532 497.913 462.548C497.913 459.565 500.316 457.152 503.288 457.152C506.26 457.152 508.663 459.565 508.663 462.548Z" fill="#F1416C"/>
</g>
<g clip-path="url(#clip3_41_1236)">
<path d="M408.679 248.858C408.679 251.842 406.277 254.254 403.304 254.254C400.332 254.254 397.919 251.842 397.919 248.858C397.919 245.875 400.322 243.462 403.294 243.462C406.266 243.462 408.679 245.875 408.679 248.858Z" fill="#F1416C"/>
<path d="M436.627 254.254C439.595 254.254 442.002 251.838 442.002 248.858C442.002 245.878 439.595 243.462 436.627 243.462C433.658 243.462 431.252 245.878 431.252 248.858C431.252 251.838 433.658 254.254 436.627 254.254Z" fill="#F1416C"/>
<path d="M469.967 254.254C472.935 254.254 475.342 251.838 475.342 248.858C475.342 245.878 472.935 243.462 469.967 243.462C466.998 243.462 464.592 245.878 464.592 248.858C464.592 251.838 466.998 254.254 469.967 254.254Z" fill="#F1416C"/>
<path d="M508.663 248.858C508.663 251.842 506.26 254.254 503.288 254.254C500.316 254.254 497.913 251.842 497.913 248.858C497.913 245.875 500.316 243.462 503.288 243.462C506.26 243.462 508.663 245.875 508.663 248.858Z" fill="#F1416C"/>
<path d="M408.679 278.82C408.679 281.804 406.277 284.216 403.304 284.216C400.332 284.216 397.919 281.804 397.919 278.82C397.919 275.837 400.322 273.424 403.294 273.424C406.266 273.424 408.679 275.837 408.679 278.82Z" fill="#F1416C"/>
<path d="M436.627 284.216C439.595 284.216 442.002 281.8 442.002 278.82C442.002 275.84 439.595 273.424 436.627 273.424C433.658 273.424 431.252 275.84 431.252 278.82C431.252 281.8 433.658 284.216 436.627 284.216Z" fill="#F1416C"/>
<path d="M469.967 284.216C472.935 284.216 475.342 281.8 475.342 278.82C475.342 275.84 472.935 273.424 469.967 273.424C466.998 273.424 464.592 275.84 464.592 278.82C464.592 281.8 466.998 284.216 469.967 284.216Z" fill="#F1416C"/>
<path d="M508.663 278.82C508.663 281.804 506.26 284.216 503.288 284.216C500.316 284.216 497.913 281.804 497.913 278.82C497.913 275.837 500.316 273.424 503.288 273.424C506.26 273.424 508.663 275.837 508.663 278.82Z" fill="#F1416C"/>
<path d="M408.679 308.782C408.679 311.766 406.277 314.178 403.304 314.178C400.332 314.178 397.919 311.766 397.919 308.782C397.919 305.799 400.322 303.387 403.294 303.387C406.266 303.387 408.679 305.799 408.679 308.782Z" fill="#F1416C"/>
<path d="M436.627 314.178C439.595 314.178 442.002 311.762 442.002 308.782C442.002 305.802 439.595 303.387 436.627 303.387C433.658 303.387 431.252 305.802 431.252 308.782C431.252 311.762 433.658 314.178 436.627 314.178Z" fill="#F1416C"/>
<path d="M469.967 314.178C472.935 314.178 475.342 311.762 475.342 308.782C475.342 305.802 472.935 303.387 469.967 303.387C466.998 303.387 464.592 305.802 464.592 308.782C464.592 311.762 466.998 314.178 469.967 314.178Z" fill="#F1416C"/>
<path d="M508.663 308.782C508.663 311.766 506.26 314.178 503.288 314.178C500.316 314.178 497.913 311.766 497.913 308.782C497.913 305.799 500.316 303.387 503.288 303.387C506.26 303.387 508.663 305.799 508.663 308.782Z" fill="#F1416C"/>
<path d="M408.679 338.744C408.679 341.728 406.277 344.14 403.304 344.14C400.332 344.14 397.919 341.717 397.919 338.744C397.919 335.771 400.322 333.349 403.294 333.349C406.266 333.349 408.679 335.761 408.679 338.744Z" fill="#F1416C"/>
<path d="M436.627 344.14C439.595 344.14 442.002 341.724 442.002 338.744C442.002 335.764 439.595 333.349 436.627 333.349C433.658 333.349 431.252 335.764 431.252 338.744C431.252 341.724 433.658 344.14 436.627 344.14Z" fill="#F1416C"/>
<path d="M469.967 344.14C472.935 344.14 475.342 341.724 475.342 338.744C475.342 335.764 472.935 333.349 469.967 333.349C466.998 333.349 464.592 335.764 464.592 338.744C464.592 341.724 466.998 344.14 469.967 344.14Z" fill="#F1416C"/>
<path d="M508.663 338.744C508.663 341.728 506.26 344.14 503.288 344.14C500.316 344.14 497.913 341.728 497.913 338.744C497.913 335.761 500.316 333.349 503.288 333.349C506.26 333.349 508.663 335.761 508.663 338.744Z" fill="#F1416C"/>
</g>
<g clip-path="url(#clip4_41_1236)">
<path d="M10.7605 372.662C10.7605 375.645 8.35757 378.058 5.38552 378.058C2.41347 378.058 0 375.645 0 372.662C0 369.678 2.40293 367.266 5.37498 367.266C8.34703 367.266 10.7605 369.678 10.7605 372.662Z" fill="#F1416C"/>
<path d="M38.708 378.058C41.6765 378.058 44.083 375.642 44.083 372.662C44.083 369.682 41.6765 367.266 38.708 367.266C35.7395 367.266 33.333 369.682 33.333 372.662C33.333 375.642 35.7395 378.058 38.708 378.058Z" fill="#F1416C"/>
<path d="M72.0478 378.058C75.0164 378.058 77.4228 375.642 77.4228 372.662C77.4228 369.682 75.0164 367.266 72.0478 367.266C69.0793 367.266 66.6729 369.682 66.6729 372.662C66.6729 375.642 69.0793 378.058 72.0478 378.058Z" fill="#F1416C"/>
<path d="M110.744 372.662C110.744 375.645 108.341 378.058 105.369 378.058C102.397 378.058 99.9941 375.645 99.9941 372.662C99.9941 369.678 102.397 367.266 105.369 367.266C108.341 367.266 110.744 369.678 110.744 372.662Z" fill="#F1416C"/>
<path d="M10.7605 402.624C10.7605 405.607 8.35757 408.019 5.38552 408.019C2.41347 408.019 0 405.607 0 402.624C0 399.64 2.40293 397.228 5.37498 397.228C8.34703 397.228 10.7605 399.64 10.7605 402.624Z" fill="#F1416C"/>
<path d="M38.708 408.019C41.6765 408.019 44.083 405.604 44.083 402.624C44.083 399.644 41.6765 397.228 38.708 397.228C35.7395 397.228 33.333 399.644 33.333 402.624C33.333 405.604 35.7395 408.019 38.708 408.019Z" fill="#F1416C"/>
<path d="M72.0478 408.019C75.0164 408.019 77.4228 405.604 77.4228 402.624C77.4228 399.644 75.0164 397.228 72.0478 397.228C69.0793 397.228 66.6729 399.644 66.6729 402.624C66.6729 405.604 69.0793 408.019 72.0478 408.019Z" fill="#F1416C"/>
<path d="M110.744 402.624C110.744 405.607 108.341 408.019 105.369 408.019C102.397 408.019 99.9941 405.607 99.9941 402.624C99.9941 399.64 102.397 397.228 105.369 397.228C108.341 397.228 110.744 399.64 110.744 402.624Z" fill="#F1416C"/>
<path d="M10.7605 432.586C10.7605 435.57 8.35757 437.982 5.38552 437.982C2.41347 437.982 0 435.57 0 432.586C0 429.603 2.40293 427.19 5.37498 427.19C8.34703 427.19 10.7605 429.603 10.7605 432.586Z" fill="#F1416C"/>
<path d="M38.708 437.982C41.6765 437.982 44.083 435.566 44.083 432.586C44.083 429.606 41.6765 427.19 38.708 427.19C35.7395 427.19 33.333 429.606 33.333 432.586C33.333 435.566 35.7395 437.982 38.708 437.982Z" fill="#F1416C"/>
<path d="M72.0478 437.982C75.0164 437.982 77.4228 435.566 77.4228 432.586C77.4228 429.606 75.0164 427.19 72.0478 427.19C69.0793 427.19 66.6729 429.606 66.6729 432.586C66.6729 435.566 69.0793 437.982 72.0478 437.982Z" fill="#F1416C"/>
<path d="M110.744 432.586C110.744 435.57 108.341 437.982 105.369 437.982C102.397 437.982 99.9941 435.57 99.9941 432.586C99.9941 429.603 102.397 427.19 105.369 427.19C108.341 427.19 110.744 429.603 110.744 432.586Z" fill="#F1416C"/>
<path d="M10.7605 462.548C10.7605 465.532 8.35757 467.944 5.38552 467.944C2.41347 467.944 0 465.521 0 462.548C0 459.575 2.40293 457.152 5.37498 457.152C8.34703 457.152 10.7605 459.565 10.7605 462.548Z" fill="#F1416C"/>
<path d="M38.708 467.944C41.6765 467.944 44.083 465.528 44.083 462.548C44.083 459.568 41.6765 457.152 38.708 457.152C35.7395 457.152 33.333 459.568 33.333 462.548C33.333 465.528 35.7395 467.944 38.708 467.944Z" fill="#F1416C"/>
<path d="M72.0478 467.944C75.0164 467.944 77.4228 465.528 77.4228 462.548C77.4228 459.568 75.0164 457.152 72.0478 457.152C69.0793 457.152 66.6729 459.568 66.6729 462.548C66.6729 465.528 69.0793 467.944 72.0478 467.944Z" fill="#F1416C"/>
<path d="M110.744 462.548C110.744 465.532 108.341 467.944 105.369 467.944C102.397 467.944 99.9941 465.532 99.9941 462.548C99.9941 459.565 102.397 457.152 105.369 457.152C108.341 457.152 110.744 459.565 110.744 462.548Z" fill="#F1416C"/>
</g>
<g clip-path="url(#clip5_41_1236)">
<path d="M10.7605 248.858C10.7605 251.842 8.35757 254.254 5.38552 254.254C2.41347 254.254 0 251.842 0 248.858C0 245.875 2.40293 243.462 5.37498 243.462C8.34703 243.462 10.7605 245.875 10.7605 248.858Z" fill="#F1416C"/>
<path d="M38.708 254.254C41.6765 254.254 44.083 251.838 44.083 248.858C44.083 245.878 41.6765 243.462 38.708 243.462C35.7395 243.462 33.333 245.878 33.333 248.858C33.333 251.838 35.7395 254.254 38.708 254.254Z" fill="#F1416C"/>
<path d="M72.0478 254.254C75.0164 254.254 77.4228 251.838 77.4228 248.858C77.4228 245.878 75.0164 243.462 72.0478 243.462C69.0793 243.462 66.6729 245.878 66.6729 248.858C66.6729 251.838 69.0793 254.254 72.0478 254.254Z" fill="#F1416C"/>
<path d="M110.744 248.858C110.744 251.842 108.341 254.254 105.369 254.254C102.397 254.254 99.9941 251.842 99.9941 248.858C99.9941 245.875 102.397 243.462 105.369 243.462C108.341 243.462 110.744 245.875 110.744 248.858Z" fill="#F1416C"/>
<path d="M10.7605 278.82C10.7605 281.804 8.35757 284.216 5.38552 284.216C2.41347 284.216 0 281.804 0 278.82C0 275.837 2.40293 273.424 5.37498 273.424C8.34703 273.424 10.7605 275.837 10.7605 278.82Z" fill="#F1416C"/>
<path d="M38.708 284.216C41.6765 284.216 44.083 281.8 44.083 278.82C44.083 275.84 41.6765 273.424 38.708 273.424C35.7395 273.424 33.333 275.84 33.333 278.82C33.333 281.8 35.7395 284.216 38.708 284.216Z" fill="#F1416C"/>
<path d="M72.0478 284.216C75.0164 284.216 77.4228 281.8 77.4228 278.82C77.4228 275.84 75.0164 273.424 72.0478 273.424C69.0793 273.424 66.6729 275.84 66.6729 278.82C66.6729 281.8 69.0793 284.216 72.0478 284.216Z" fill="#F1416C"/>
<path d="M110.744 278.82C110.744 281.804 108.341 284.216 105.369 284.216C102.397 284.216 99.9941 281.804 99.9941 278.82C99.9941 275.837 102.397 273.424 105.369 273.424C108.341 273.424 110.744 275.837 110.744 278.82Z" fill="#F1416C"/>
<path d="M10.7605 308.782C10.7605 311.766 8.35757 314.178 5.38552 314.178C2.41347 314.178 0 311.766 0 308.782C0 305.799 2.40293 303.387 5.37498 303.387C8.34703 303.387 10.7605 305.799 10.7605 308.782Z" fill="#F1416C"/>
<path d="M38.708 314.178C41.6765 314.178 44.083 311.762 44.083 308.782C44.083 305.802 41.6765 303.387 38.708 303.387C35.7395 303.387 33.333 305.802 33.333 308.782C33.333 311.762 35.7395 314.178 38.708 314.178Z" fill="#F1416C"/>
<path d="M72.0478 314.178C75.0164 314.178 77.4228 311.762 77.4228 308.782C77.4228 305.802 75.0164 303.387 72.0478 303.387C69.0793 303.387 66.6729 305.802 66.6729 308.782C66.6729 311.762 69.0793 314.178 72.0478 314.178Z" fill="#F1416C"/>
<path d="M110.744 308.782C110.744 311.766 108.341 314.178 105.369 314.178C102.397 314.178 99.9941 311.766 99.9941 308.782C99.9941 305.799 102.397 303.387 105.369 303.387C108.341 303.387 110.744 305.799 110.744 308.782Z" fill="#F1416C"/>
<path d="M10.7605 338.744C10.7605 341.728 8.35757 344.14 5.38552 344.14C2.41347 344.14 0 341.717 0 338.744C0 335.771 2.40293 333.349 5.37498 333.349C8.34703 333.349 10.7605 335.761 10.7605 338.744Z" fill="#F1416C"/>
<path d="M38.708 344.14C41.6765 344.14 44.083 341.724 44.083 338.744C44.083 335.764 41.6765 333.349 38.708 333.349C35.7395 333.349 33.333 335.764 33.333 338.744C33.333 341.724 35.7395 344.14 38.708 344.14Z" fill="#F1416C"/>
<path d="M72.0478 344.14C75.0164 344.14 77.4228 341.724 77.4228 338.744C77.4228 335.764 75.0164 333.349 72.0478 333.349C69.0793 333.349 66.6729 335.764 66.6729 338.744C66.6729 341.724 69.0793 344.14 72.0478 344.14Z" fill="#F1416C"/>
<path d="M110.744 338.744C110.744 341.728 108.341 344.14 105.369 344.14C102.397 344.14 99.9941 341.728 99.9941 338.744C99.9941 335.761 102.397 333.349 105.369 333.349C108.341 333.349 110.744 335.761 110.744 338.744Z" fill="#F1416C"/>
</g>
<g clip-path="url(#clip6_41_1236)">
<path d="M144.63 372.662C144.63 375.645 142.227 378.058 139.255 378.058C136.283 378.058 133.869 375.645 133.869 372.662C133.869 369.678 136.272 367.266 139.244 367.266C142.216 367.266 144.63 369.678 144.63 372.662Z" fill="#F1416C"/>
<path d="M172.577 378.058C175.546 378.058 177.952 375.642 177.952 372.662C177.952 369.682 175.546 367.266 172.577 367.266C169.609 367.266 167.202 369.682 167.202 372.662C167.202 375.642 169.609 378.058 172.577 378.058Z" fill="#F1416C"/>
<path d="M205.917 378.058C208.885 378.058 211.292 375.642 211.292 372.662C211.292 369.682 208.885 367.266 205.917 367.266C202.948 367.266 200.542 369.682 200.542 372.662C200.542 375.642 202.948 378.058 205.917 378.058Z" fill="#F1416C"/>
<path d="M244.613 372.662C244.613 375.645 242.21 378.058 239.238 378.058C236.266 378.058 233.863 375.645 233.863 372.662C233.863 369.678 236.266 367.266 239.238 367.266C242.21 367.266 244.613 369.678 244.613 372.662Z" fill="#F1416C"/>
<path d="M144.63 402.624C144.63 405.607 142.227 408.019 139.255 408.019C136.283 408.019 133.869 405.607 133.869 402.624C133.869 399.64 136.272 397.228 139.244 397.228C142.216 397.228 144.63 399.64 144.63 402.624Z" fill="#F1416C"/>
<path d="M172.577 408.019C175.546 408.019 177.952 405.604 177.952 402.624C177.952 399.644 175.546 397.228 172.577 397.228C169.609 397.228 167.202 399.644 167.202 402.624C167.202 405.604 169.609 408.019 172.577 408.019Z" fill="#F1416C"/>
<path d="M205.917 408.019C208.885 408.019 211.292 405.604 211.292 402.624C211.292 399.644 208.885 397.228 205.917 397.228C202.948 397.228 200.542 399.644 200.542 402.624C200.542 405.604 202.948 408.019 205.917 408.019Z" fill="#F1416C"/>
<path d="M244.613 402.624C244.613 405.607 242.21 408.019 239.238 408.019C236.266 408.019 233.863 405.607 233.863 402.624C233.863 399.64 236.266 397.228 239.238 397.228C242.21 397.228 244.613 399.64 244.613 402.624Z" fill="#F1416C"/>
<path d="M144.63 432.586C144.63 435.57 142.227 437.982 139.255 437.982C136.283 437.982 133.869 435.57 133.869 432.586C133.869 429.603 136.272 427.19 139.244 427.19C142.216 427.19 144.63 429.603 144.63 432.586Z" fill="#F1416C"/>
<path d="M172.577 437.982C175.546 437.982 177.952 435.566 177.952 432.586C177.952 429.606 175.546 427.19 172.577 427.19C169.609 427.19 167.202 429.606 167.202 432.586C167.202 435.566 169.609 437.982 172.577 437.982Z" fill="#F1416C"/>
<path d="M205.917 437.982C208.885 437.982 211.292 435.566 211.292 432.586C211.292 429.606 208.885 427.19 205.917 427.19C202.948 427.19 200.542 429.606 200.542 432.586C200.542 435.566 202.948 437.982 205.917 437.982Z" fill="#F1416C"/>
<path d="M244.613 432.586C244.613 435.57 242.21 437.982 239.238 437.982C236.266 437.982 233.863 435.57 233.863 432.586C233.863 429.603 236.266 427.19 239.238 427.19C242.21 427.19 244.613 429.603 244.613 432.586Z" fill="#F1416C"/>
<path d="M144.63 462.548C144.63 465.532 142.227 467.944 139.255 467.944C136.283 467.944 133.869 465.521 133.869 462.548C133.869 459.575 136.272 457.152 139.244 457.152C142.216 457.152 144.63 459.565 144.63 462.548Z" fill="#F1416C"/>
<path d="M172.577 467.944C175.546 467.944 177.952 465.528 177.952 462.548C177.952 459.568 175.546 457.152 172.577 457.152C169.609 457.152 167.202 459.568 167.202 462.548C167.202 465.528 169.609 467.944 172.577 467.944Z" fill="#F1416C"/>
<path d="M205.917 467.944C208.885 467.944 211.292 465.528 211.292 462.548C211.292 459.568 208.885 457.152 205.917 457.152C202.948 457.152 200.542 459.568 200.542 462.548C200.542 465.528 202.948 467.944 205.917 467.944Z" fill="#F1416C"/>
<path d="M244.613 462.548C244.613 465.532 242.21 467.944 239.238 467.944C236.266 467.944 233.863 465.532 233.863 462.548C233.863 459.565 236.266 457.152 239.238 457.152C242.21 457.152 244.613 459.565 244.613 462.548Z" fill="#F1416C"/>
</g>
<g clip-path="url(#clip7_41_1236)">
<path d="M144.63 248.858C144.63 251.842 142.227 254.254 139.255 254.254C136.283 254.254 133.869 251.842 133.869 248.858C133.869 245.875 136.272 243.462 139.244 243.462C142.216 243.462 144.63 245.875 144.63 248.858Z" fill="#F1416C"/>
<path d="M172.577 254.254C175.546 254.254 177.952 251.838 177.952 248.858C177.952 245.878 175.546 243.462 172.577 243.462C169.609 243.462 167.202 245.878 167.202 248.858C167.202 251.838 169.609 254.254 172.577 254.254Z" fill="#F1416C"/>
<path d="M205.917 254.254C208.885 254.254 211.292 251.838 211.292 248.858C211.292 245.878 208.885 243.462 205.917 243.462C202.948 243.462 200.542 245.878 200.542 248.858C200.542 251.838 202.948 254.254 205.917 254.254Z" fill="#F1416C"/>
<path d="M244.613 248.858C244.613 251.842 242.21 254.254 239.238 254.254C236.266 254.254 233.863 251.842 233.863 248.858C233.863 245.875 236.266 243.462 239.238 243.462C242.21 243.462 244.613 245.875 244.613 248.858Z" fill="#F1416C"/>
<path d="M144.63 278.82C144.63 281.804 142.227 284.216 139.255 284.216C136.283 284.216 133.869 281.804 133.869 278.82C133.869 275.837 136.272 273.424 139.244 273.424C142.216 273.424 144.63 275.837 144.63 278.82Z" fill="#F1416C"/>
<path d="M172.577 284.216C175.546 284.216 177.952 281.8 177.952 278.82C177.952 275.84 175.546 273.424 172.577 273.424C169.609 273.424 167.202 275.84 167.202 278.82C167.202 281.8 169.609 284.216 172.577 284.216Z" fill="#F1416C"/>
<path d="M205.917 284.216C208.885 284.216 211.292 281.8 211.292 278.82C211.292 275.84 208.885 273.424 205.917 273.424C202.948 273.424 200.542 275.84 200.542 278.82C200.542 281.8 202.948 284.216 205.917 284.216Z" fill="#F1416C"/>
<path d="M244.613 278.82C244.613 281.804 242.21 284.216 239.238 284.216C236.266 284.216 233.863 281.804 233.863 278.82C233.863 275.837 236.266 273.424 239.238 273.424C242.21 273.424 244.613 275.837 244.613 278.82Z" fill="#F1416C"/>
<path d="M144.63 308.782C144.63 311.766 142.227 314.178 139.255 314.178C136.283 314.178 133.869 311.766 133.869 308.782C133.869 305.799 136.272 303.387 139.244 303.387C142.216 303.387 144.63 305.799 144.63 308.782Z" fill="#F1416C"/>
<path d="M172.577 314.178C175.546 314.178 177.952 311.762 177.952 308.782C177.952 305.802 175.546 303.387 172.577 303.387C169.609 303.387 167.202 305.802 167.202 308.782C167.202 311.762 169.609 314.178 172.577 314.178Z" fill="#F1416C"/>
<path d="M205.917 314.178C208.885 314.178 211.292 311.762 211.292 308.782C211.292 305.802 208.885 303.387 205.917 303.387C202.948 303.387 200.542 305.802 200.542 308.782C200.542 311.762 202.948 314.178 205.917 314.178Z" fill="#F1416C"/>
<path d="M244.613 308.782C244.613 311.766 242.21 314.178 239.238 314.178C236.266 314.178 233.863 311.766 233.863 308.782C233.863 305.799 236.266 303.387 239.238 303.387C242.21 303.387 244.613 305.799 244.613 308.782Z" fill="#F1416C"/>
<path d="M144.63 338.744C144.63 341.728 142.227 344.14 139.255 344.14C136.283 344.14 133.869 341.717 133.869 338.744C133.869 335.771 136.272 333.349 139.244 333.349C142.216 333.349 144.63 335.761 144.63 338.744Z" fill="#F1416C"/>
<path d="M172.577 344.14C175.546 344.14 177.952 341.724 177.952 338.744C177.952 335.764 175.546 333.349 172.577 333.349C169.609 333.349 167.202 335.764 167.202 338.744C167.202 341.724 169.609 344.14 172.577 344.14Z" fill="#F1416C"/>
<path d="M205.917 344.14C208.885 344.14 211.292 341.724 211.292 338.744C211.292 335.764 208.885 333.349 205.917 333.349C202.948 333.349 200.542 335.764 200.542 338.744C200.542 341.724 202.948 344.14 205.917 344.14Z" fill="#F1416C"/>
<path d="M244.613 338.744C244.613 341.728 242.21 344.14 239.238 344.14C236.266 344.14 233.863 341.728 233.863 338.744C233.863 335.761 236.266 333.349 239.238 333.349C242.21 333.349 244.613 335.761 244.613 338.744Z" fill="#F1416C"/>
</g>
<g clip-path="url(#clip8_41_1236)">
<path d="M274.811 129.199C274.811 132.183 272.408 134.595 269.436 134.595C266.464 134.595 264.051 132.183 264.051 129.199C264.051 126.216 266.454 123.804 269.426 123.804C272.398 123.804 274.811 126.216 274.811 129.199Z" fill="#F1416C"/>
<path d="M302.759 134.595C305.727 134.595 308.134 132.179 308.134 129.199C308.134 126.219 305.727 123.804 302.759 123.804C299.79 123.804 297.384 126.219 297.384 129.199C297.384 132.179 299.79 134.595 302.759 134.595Z" fill="#F1416C"/>
<path d="M336.099 134.595C339.067 134.595 341.474 132.179 341.474 129.199C341.474 126.219 339.067 123.804 336.099 123.804C333.13 123.804 330.724 126.219 330.724 129.199C330.724 132.179 333.13 134.595 336.099 134.595Z" fill="#F1416C"/>
<path d="M374.795 129.199C374.795 132.183 372.392 134.595 369.42 134.595C366.448 134.595 364.045 132.183 364.045 129.199C364.045 126.216 366.448 123.804 369.42 123.804C372.392 123.804 374.795 126.216 374.795 129.199Z" fill="#F1416C"/>
<path d="M274.811 159.161C274.811 162.145 272.408 164.557 269.436 164.557C266.464 164.557 264.051 162.145 264.051 159.161C264.051 156.178 266.454 153.766 269.426 153.766C272.398 153.766 274.811 156.178 274.811 159.161Z" fill="#F1416C"/>
<path d="M302.759 164.557C305.727 164.557 308.134 162.141 308.134 159.161C308.134 156.181 305.727 153.766 302.759 153.766C299.79 153.766 297.384 156.181 297.384 159.161C297.384 162.141 299.79 164.557 302.759 164.557Z" fill="#F1416C"/>
<path d="M336.099 164.557C339.067 164.557 341.474 162.141 341.474 159.161C341.474 156.181 339.067 153.766 336.099 153.766C333.13 153.766 330.724 156.181 330.724 159.161C330.724 162.141 333.13 164.557 336.099 164.557Z" fill="#F1416C"/>
<path d="M374.795 159.161C374.795 162.145 372.392 164.557 369.42 164.557C366.448 164.557 364.045 162.145 364.045 159.161C364.045 156.178 366.448 153.766 369.42 153.766C372.392 153.766 374.795 156.178 374.795 159.161Z" fill="#F1416C"/>
<path d="M274.811 189.124C274.811 192.107 272.408 194.519 269.436 194.519C266.464 194.519 264.051 192.107 264.051 189.124C264.051 186.14 266.454 183.728 269.426 183.728C272.398 183.728 274.811 186.14 274.811 189.124Z" fill="#F1416C"/>
<path d="M302.759 194.519C305.727 194.519 308.134 192.104 308.134 189.124C308.134 186.144 305.727 183.728 302.759 183.728C299.79 183.728 297.384 186.144 297.384 189.124C297.384 192.104 299.79 194.519 302.759 194.519Z" fill="#F1416C"/>
<path d="M336.099 194.519C339.067 194.519 341.474 192.104 341.474 189.124C341.474 186.144 339.067 183.728 336.099 183.728C333.13 183.728 330.724 186.144 330.724 189.124C330.724 192.104 333.13 194.519 336.099 194.519Z" fill="#F1416C"/>
<path d="M374.795 189.124C374.795 192.107 372.392 194.519 369.42 194.519C366.448 194.519 364.045 192.107 364.045 189.124C364.045 186.14 366.448 183.728 369.42 183.728C372.392 183.728 374.795 186.14 374.795 189.124Z" fill="#F1416C"/>
<path d="M274.811 219.086C274.811 222.069 272.408 224.481 269.436 224.481C266.464 224.481 264.051 222.059 264.051 219.086C264.051 216.113 266.454 213.69 269.426 213.69C272.398 213.69 274.811 216.102 274.811 219.086Z" fill="#F1416C"/>
<path d="M302.759 224.481C305.727 224.481 308.134 222.066 308.134 219.086C308.134 216.106 305.727 213.69 302.759 213.69C299.79 213.69 297.384 216.106 297.384 219.086C297.384 222.066 299.79 224.481 302.759 224.481Z" fill="#F1416C"/>
<path d="M336.099 224.481C339.067 224.481 341.474 222.066 341.474 219.086C341.474 216.106 339.067 213.69 336.099 213.69C333.13 213.69 330.724 216.106 330.724 219.086C330.724 222.066 333.13 224.481 336.099 224.481Z" fill="#F1416C"/>
<path d="M374.795 219.086C374.795 222.069 372.392 224.481 369.42 224.481C366.448 224.481 364.045 222.069 364.045 219.086C364.045 216.102 366.448 213.69 369.42 213.69C372.392 213.69 374.795 216.102 374.795 219.086Z" fill="#F1416C"/>
</g>
<g clip-path="url(#clip9_41_1236)">
<path d="M274.811 5.39573C274.811 8.37925 272.408 10.7915 269.436 10.7915C266.464 10.7915 264.051 8.37925 264.051 5.39573C264.051 2.41221 266.454 0 269.426 0C272.398 0 274.811 2.41221 274.811 5.39573Z" fill="#F1416C"/>
<path d="M302.759 10.7915C305.727 10.7915 308.134 8.3757 308.134 5.39573C308.134 2.41575 305.727 0 302.759 0C299.79 0 297.384 2.41575 297.384 5.39573C297.384 8.3757 299.79 10.7915 302.759 10.7915Z" fill="#F1416C"/>
<path d="M336.099 10.7915C339.067 10.7915 341.474 8.3757 341.474 5.39573C341.474 2.41575 339.067 0 336.099 0C333.13 0 330.724 2.41575 330.724 5.39573C330.724 8.3757 333.13 10.7915 336.099 10.7915Z" fill="#F1416C"/>
<path d="M374.795 5.39573C374.795 8.37925 372.392 10.7915 369.42 10.7915C366.448 10.7915 364.045 8.37925 364.045 5.39573C364.045 2.41221 366.448 0 369.42 0C372.392 0 374.795 2.41221 374.795 5.39573Z" fill="#F1416C"/>
<path d="M274.811 35.3576C274.811 38.3412 272.408 40.7534 269.436 40.7534C266.464 40.7534 264.051 38.3412 264.051 35.3576C264.051 32.3741 266.454 29.9619 269.426 29.9619C272.398 29.9619 274.811 32.3741 274.811 35.3576Z" fill="#F1416C"/>
<path d="M302.759 40.7534C305.727 40.7534 308.134 38.3376 308.134 35.3576C308.134 32.3777 305.727 29.9619 302.759 29.9619C299.79 29.9619 297.384 32.3777 297.384 35.3576C297.384 38.3376 299.79 40.7534 302.759 40.7534Z" fill="#F1416C"/>
<path d="M336.099 40.7534C339.067 40.7534 341.474 38.3376 341.474 35.3576C341.474 32.3777 339.067 29.9619 336.099 29.9619C333.13 29.9619 330.724 32.3777 330.724 35.3576C330.724 38.3376 333.13 40.7534 336.099 40.7534Z" fill="#F1416C"/>
<path d="M374.795 35.3576C374.795 38.3412 372.392 40.7534 369.42 40.7534C366.448 40.7534 364.045 38.3412 364.045 35.3576C364.045 32.3741 366.448 29.9619 369.42 29.9619C372.392 29.9619 374.795 32.3741 374.795 35.3576Z" fill="#F1416C"/>
<path d="M274.811 65.32C274.811 68.3036 272.408 70.7158 269.436 70.7158C266.464 70.7158 264.051 68.3036 264.051 65.32C264.051 62.3365 266.454 59.9243 269.426 59.9243C272.398 59.9243 274.811 62.3365 274.811 65.32Z" fill="#F1416C"/>
<path d="M302.759 70.7158C305.727 70.7158 308.134 68.3 308.134 65.32C308.134 62.3401 305.727 59.9243 302.759 59.9243C299.79 59.9243 297.384 62.3401 297.384 65.32C297.384 68.3 299.79 70.7158 302.759 70.7158Z" fill="#F1416C"/>
<path d="M336.099 70.7158C339.067 70.7158 341.474 68.3 341.474 65.32C341.474 62.3401 339.067 59.9243 336.099 59.9243C333.13 59.9243 330.724 62.3401 330.724 65.32C330.724 68.3 333.13 70.7158 336.099 70.7158Z" fill="#F1416C"/>
<path d="M374.795 65.32C374.795 68.3036 372.392 70.7158 369.42 70.7158C366.448 70.7158 364.045 68.3036 364.045 65.32C364.045 62.3365 366.448 59.9243 369.42 59.9243C372.392 59.9243 374.795 62.3365 374.795 65.32Z" fill="#F1416C"/>
<path d="M274.811 95.282C274.811 98.2655 272.408 100.678 269.436 100.678C266.464 100.678 264.051 98.2549 264.051 95.282C264.051 92.309 266.454 89.8862 269.426 89.8862C272.398 89.8862 274.811 92.2984 274.811 95.282Z" fill="#F1416C"/>
<path d="M302.759 100.678C305.727 100.678 308.134 98.2619 308.134 95.282C308.134 92.302 305.727 89.8862 302.759 89.8862C299.79 89.8862 297.384 92.302 297.384 95.282C297.384 98.2619 299.79 100.678 302.759 100.678Z" fill="#F1416C"/>
<path d="M336.099 100.678C339.067 100.678 341.474 98.2619 341.474 95.282C341.474 92.302 339.067 89.8862 336.099 89.8862C333.13 89.8862 330.724 92.302 330.724 95.282C330.724 98.2619 333.13 100.678 336.099 100.678Z" fill="#F1416C"/>
<path d="M374.795 95.282C374.795 98.2655 372.392 100.678 369.42 100.678C366.448 100.678 364.045 98.2655 364.045 95.282C364.045 92.2984 366.448 89.8862 369.42 89.8862C372.392 89.8862 374.795 92.2984 374.795 95.282Z" fill="#F1416C"/>
</g>
<g clip-path="url(#clip10_41_1236)">
<path d="M408.679 129.199C408.679 132.182 406.277 134.595 403.304 134.595C400.332 134.595 397.919 132.182 397.919 129.199C397.919 126.215 400.322 123.803 403.294 123.803C406.266 123.803 408.679 126.215 408.679 129.199Z" fill="#F1416C"/>
<path d="M436.627 134.595C439.595 134.595 442.002 132.179 442.002 129.199C442.002 126.219 439.595 123.803 436.627 123.803C433.658 123.803 431.252 126.219 431.252 129.199C431.252 132.179 433.658 134.595 436.627 134.595Z" fill="#F1416C"/>
<path d="M469.967 134.595C472.935 134.595 475.342 132.179 475.342 129.199C475.342 126.219 472.935 123.803 469.967 123.803C466.998 123.803 464.592 126.219 464.592 129.199C464.592 132.179 466.998 134.595 469.967 134.595Z" fill="#F1416C"/>
<path d="M508.663 129.199C508.663 132.182 506.26 134.595 503.288 134.595C500.316 134.595 497.913 132.182 497.913 129.199C497.913 126.215 500.316 123.803 503.288 123.803C506.26 123.803 508.663 126.215 508.663 129.199Z" fill="#F1416C"/>
<path d="M408.679 159.161C408.679 162.144 406.277 164.557 403.304 164.557C400.332 164.557 397.919 162.144 397.919 159.161C397.919 156.177 400.322 153.765 403.294 153.765C406.266 153.765 408.679 156.177 408.679 159.161Z" fill="#F1416C"/>
<path d="M436.627 164.557C439.595 164.557 442.002 162.141 442.002 159.161C442.002 156.181 439.595 153.765 436.627 153.765C433.658 153.765 431.252 156.181 431.252 159.161C431.252 162.141 433.658 164.557 436.627 164.557Z" fill="#F1416C"/>
<path d="M469.967 164.557C472.935 164.557 475.342 162.141 475.342 159.161C475.342 156.181 472.935 153.765 469.967 153.765C466.998 153.765 464.592 156.181 464.592 159.161C464.592 162.141 466.998 164.557 469.967 164.557Z" fill="#F1416C"/>
<path d="M508.663 159.161C508.663 162.144 506.26 164.557 503.288 164.557C500.316 164.557 497.913 162.144 497.913 159.161C497.913 156.177 500.316 153.765 503.288 153.765C506.26 153.765 508.663 156.177 508.663 159.161Z" fill="#F1416C"/>
<path d="M408.679 189.123C408.679 192.107 406.277 194.519 403.304 194.519C400.332 194.519 397.919 192.107 397.919 189.123C397.919 186.14 400.322 183.728 403.294 183.728C406.266 183.728 408.679 186.14 408.679 189.123Z" fill="#F1416C"/>
<path d="M436.627 194.519C439.595 194.519 442.002 192.103 442.002 189.123C442.002 186.143 439.595 183.728 436.627 183.728C433.658 183.728 431.252 186.143 431.252 189.123C431.252 192.103 433.658 194.519 436.627 194.519Z" fill="#F1416C"/>
<path d="M469.967 194.519C472.935 194.519 475.342 192.103 475.342 189.123C475.342 186.143 472.935 183.728 469.967 183.728C466.998 183.728 464.592 186.143 464.592 189.123C464.592 192.103 466.998 194.519 469.967 194.519Z" fill="#F1416C"/>
<path d="M508.663 189.123C508.663 192.107 506.26 194.519 503.288 194.519C500.316 194.519 497.913 192.107 497.913 189.123C497.913 186.14 500.316 183.728 503.288 183.728C506.26 183.728 508.663 186.14 508.663 189.123Z" fill="#F1416C"/>
<path d="M408.679 219.085C408.679 222.069 406.277 224.481 403.304 224.481C400.332 224.481 397.919 222.058 397.919 219.085C397.919 216.112 400.322 213.689 403.294 213.689C406.266 213.689 408.679 216.102 408.679 219.085Z" fill="#F1416C"/>
<path d="M436.627 224.481C439.595 224.481 442.002 222.065 442.002 219.085C442.002 216.105 439.595 213.689 436.627 213.689C433.658 213.689 431.252 216.105 431.252 219.085C431.252 222.065 433.658 224.481 436.627 224.481Z" fill="#F1416C"/>
<path d="M469.967 224.481C472.935 224.481 475.342 222.065 475.342 219.085C475.342 216.105 472.935 213.689 469.967 213.689C466.998 213.689 464.592 216.105 464.592 219.085C464.592 222.065 466.998 224.481 469.967 224.481Z" fill="#F1416C"/>
<path d="M508.663 219.085C508.663 222.069 506.26 224.481 503.288 224.481C500.316 224.481 497.913 222.069 497.913 219.085C497.913 216.102 500.316 213.689 503.288 213.689C506.26 213.689 508.663 216.102 508.663 219.085Z" fill="#F1416C"/>
</g>
<g clip-path="url(#clip11_41_1236)">
<path d="M408.679 5.39573C408.679 8.37925 406.277 10.7915 403.304 10.7915C400.332 10.7915 397.919 8.37925 397.919 5.39573C397.919 2.41221 400.322 0 403.294 0C406.266 0 408.679 2.41221 408.679 5.39573Z" fill="#F1416C"/>
<path d="M436.627 10.7915C439.595 10.7915 442.002 8.3757 442.002 5.39573C442.002 2.41575 439.595 0 436.627 0C433.658 0 431.252 2.41575 431.252 5.39573C431.252 8.3757 433.658 10.7915 436.627 10.7915Z" fill="#F1416C"/>
<path d="M469.967 10.7915C472.935 10.7915 475.342 8.3757 475.342 5.39573C475.342 2.41575 472.935 0 469.967 0C466.998 0 464.592 2.41575 464.592 5.39573C464.592 8.3757 466.998 10.7915 469.967 10.7915Z" fill="#F1416C"/>
<path d="M508.663 5.39573C508.663 8.37925 506.26 10.7915 503.288 10.7915C500.316 10.7915 497.913 8.37925 497.913 5.39573C497.913 2.41221 500.316 0 503.288 0C506.26 0 508.663 2.41221 508.663 5.39573Z" fill="#F1416C"/>
<path d="M408.679 35.3576C408.679 38.3412 406.277 40.7534 403.304 40.7534C400.332 40.7534 397.919 38.3412 397.919 35.3576C397.919 32.3741 400.322 29.9619 403.294 29.9619C406.266 29.9619 408.679 32.3741 408.679 35.3576Z" fill="#F1416C"/>
<path d="M436.627 40.7534C439.595 40.7534 442.002 38.3376 442.002 35.3576C442.002 32.3777 439.595 29.9619 436.627 29.9619C433.658 29.9619 431.252 32.3777 431.252 35.3576C431.252 38.3376 433.658 40.7534 436.627 40.7534Z" fill="#F1416C"/>
<path d="M469.967 40.7534C472.935 40.7534 475.342 38.3376 475.342 35.3576C475.342 32.3777 472.935 29.9619 469.967 29.9619C466.998 29.9619 464.592 32.3777 464.592 35.3576C464.592 38.3376 466.998 40.7534 469.967 40.7534Z" fill="#F1416C"/>
<path d="M508.663 35.3576C508.663 38.3412 506.26 40.7534 503.288 40.7534C500.316 40.7534 497.913 38.3412 497.913 35.3576C497.913 32.3741 500.316 29.9619 503.288 29.9619C506.26 29.9619 508.663 32.3741 508.663 35.3576Z" fill="#F1416C"/>
<path d="M408.679 65.32C408.679 68.3036 406.277 70.7158 403.304 70.7158C400.332 70.7158 397.919 68.3036 397.919 65.32C397.919 62.3365 400.322 59.9243 403.294 59.9243C406.266 59.9243 408.679 62.3365 408.679 65.32Z" fill="#F1416C"/>
<path d="M436.627 70.7158C439.595 70.7158 442.002 68.3 442.002 65.32C442.002 62.3401 439.595 59.9243 436.627 59.9243C433.658 59.9243 431.252 62.3401 431.252 65.32C431.252 68.3 433.658 70.7158 436.627 70.7158Z" fill="#F1416C"/>
<path d="M469.967 70.7158C472.935 70.7158 475.342 68.3 475.342 65.32C475.342 62.3401 472.935 59.9243 469.967 59.9243C466.998 59.9243 464.592 62.3401 464.592 65.32C464.592 68.3 466.998 70.7158 469.967 70.7158Z" fill="#F1416C"/>
<path d="M508.663 65.32C508.663 68.3036 506.26 70.7158 503.288 70.7158C500.316 70.7158 497.913 68.3036 497.913 65.32C497.913 62.3365 500.316 59.9243 503.288 59.9243C506.26 59.9243 508.663 62.3365 508.663 65.32Z" fill="#F1416C"/>
<path d="M408.679 95.282C408.679 98.2655 406.277 100.678 403.304 100.678C400.332 100.678 397.919 98.2549 397.919 95.282C397.919 92.309 400.322 89.8862 403.294 89.8862C406.266 89.8862 408.679 92.2984 408.679 95.282Z" fill="#F1416C"/>
<path d="M436.627 100.678C439.595 100.678 442.002 98.2619 442.002 95.282C442.002 92.302 439.595 89.8862 436.627 89.8862C433.658 89.8862 431.252 92.302 431.252 95.282C431.252 98.2619 433.658 100.678 436.627 100.678Z" fill="#F1416C"/>
<path d="M469.967 100.678C472.935 100.678 475.342 98.2619 475.342 95.282C475.342 92.302 472.935 89.8862 469.967 89.8862C466.998 89.8862 464.592 92.302 464.592 95.282C464.592 98.2619 466.998 100.678 469.967 100.678Z" fill="#F1416C"/>
<path d="M508.663 95.282C508.663 98.2655 506.26 100.678 503.288 100.678C500.316 100.678 497.913 98.2655 497.913 95.282C497.913 92.2984 500.316 89.8862 503.288 89.8862C506.26 89.8862 508.663 92.2984 508.663 95.282Z" fill="#F1416C"/>
</g>
<g clip-path="url(#clip12_41_1236)">
<path d="M10.7605 129.199C10.7605 132.183 8.35757 134.595 5.38552 134.595C2.41347 134.595 0 132.183 0 129.199C0 126.216 2.40293 123.804 5.37498 123.804C8.34703 123.804 10.7605 126.216 10.7605 129.199Z" fill="#F1416C"/>
<path d="M38.708 134.595C41.6765 134.595 44.083 132.179 44.083 129.199C44.083 126.219 41.6765 123.804 38.708 123.804C35.7395 123.804 33.333 126.219 33.333 129.199C33.333 132.179 35.7395 134.595 38.708 134.595Z" fill="#F1416C"/>
<path d="M72.0478 134.595C75.0164 134.595 77.4228 132.179 77.4228 129.199C77.4228 126.219 75.0164 123.804 72.0478 123.804C69.0793 123.804 66.6729 126.219 66.6729 129.199C66.6729 132.179 69.0793 134.595 72.0478 134.595Z" fill="#F1416C"/>
<path d="M110.744 129.199C110.744 132.183 108.341 134.595 105.369 134.595C102.397 134.595 99.9941 132.183 99.9941 129.199C99.9941 126.216 102.397 123.804 105.369 123.804C108.341 123.804 110.744 126.216 110.744 129.199Z" fill="#F1416C"/>
<path d="M10.7605 159.161C10.7605 162.145 8.35757 164.557 5.38552 164.557C2.41347 164.557 0 162.145 0 159.161C0 156.178 2.40293 153.766 5.37498 153.766C8.34703 153.766 10.7605 156.178 10.7605 159.161Z" fill="#F1416C"/>
<path d="M38.708 164.557C41.6765 164.557 44.083 162.141 44.083 159.161C44.083 156.181 41.6765 153.766 38.708 153.766C35.7395 153.766 33.333 156.181 33.333 159.161C33.333 162.141 35.7395 164.557 38.708 164.557Z" fill="#F1416C"/>
<path d="M72.0478 164.557C75.0164 164.557 77.4228 162.141 77.4228 159.161C77.4228 156.181 75.0164 153.766 72.0478 153.766C69.0793 153.766 66.6729 156.181 66.6729 159.161C66.6729 162.141 69.0793 164.557 72.0478 164.557Z" fill="#F1416C"/>
<path d="M110.744 159.161C110.744 162.145 108.341 164.557 105.369 164.557C102.397 164.557 99.9941 162.145 99.9941 159.161C99.9941 156.178 102.397 153.766 105.369 153.766C108.341 153.766 110.744 156.178 110.744 159.161Z" fill="#F1416C"/>
<path d="M10.7605 189.124C10.7605 192.107 8.35757 194.519 5.38552 194.519C2.41347 194.519 0 192.107 0 189.124C0 186.14 2.40293 183.728 5.37498 183.728C8.34703 183.728 10.7605 186.14 10.7605 189.124Z" fill="#F1416C"/>
<path d="M38.708 194.519C41.6765 194.519 44.083 192.104 44.083 189.124C44.083 186.144 41.6765 183.728 38.708 183.728C35.7395 183.728 33.333 186.144 33.333 189.124C33.333 192.104 35.7395 194.519 38.708 194.519Z" fill="#F1416C"/>
<path d="M72.0478 194.519C75.0164 194.519 77.4228 192.104 77.4228 189.124C77.4228 186.144 75.0164 183.728 72.0478 183.728C69.0793 183.728 66.6729 186.144 66.6729 189.124C66.6729 192.104 69.0793 194.519 72.0478 194.519Z" fill="#F1416C"/>
<path d="M110.744 189.124C110.744 192.107 108.341 194.519 105.369 194.519C102.397 194.519 99.9941 192.107 99.9941 189.124C99.9941 186.14 102.397 183.728 105.369 183.728C108.341 183.728 110.744 186.14 110.744 189.124Z" fill="#F1416C"/>
<path d="M10.7605 219.086C10.7605 222.069 8.35757 224.481 5.38552 224.481C2.41347 224.481 0 222.059 0 219.086C0 216.113 2.40293 213.69 5.37498 213.69C8.34703 213.69 10.7605 216.102 10.7605 219.086Z" fill="#F1416C"/>
<path d="M38.708 224.481C41.6765 224.481 44.083 222.066 44.083 219.086C44.083 216.106 41.6765 213.69 38.708 213.69C35.7395 213.69 33.333 216.106 33.333 219.086C33.333 222.066 35.7395 224.481 38.708 224.481Z" fill="#F1416C"/>
<path d="M72.0478 224.481C75.0164 224.481 77.4228 222.066 77.4228 219.086C77.4228 216.106 75.0164 213.69 72.0478 213.69C69.0793 213.69 66.6729 216.106 66.6729 219.086C66.6729 222.066 69.0793 224.481 72.0478 224.481Z" fill="#F1416C"/>
<path d="M110.744 219.086C110.744 222.069 108.341 224.481 105.369 224.481C102.397 224.481 99.9941 222.069 99.9941 219.086C99.9941 216.102 102.397 213.69 105.369 213.69C108.341 213.69 110.744 216.102 110.744 219.086Z" fill="#F1416C"/>
</g>
<g clip-path="url(#clip13_41_1236)">
<path d="M10.7605 5.39573C10.7605 8.37925 8.35757 10.7915 5.38552 10.7915C2.41347 10.7915 0 8.37925 0 5.39573C0 2.41221 2.40293 0 5.37498 0C8.34703 0 10.7605 2.41221 10.7605 5.39573Z" fill="#F1416C"/>
<path d="M38.708 10.7915C41.6765 10.7915 44.083 8.3757 44.083 5.39573C44.083 2.41575 41.6765 0 38.708 0C35.7395 0 33.333 2.41575 33.333 5.39573C33.333 8.3757 35.7395 10.7915 38.708 10.7915Z" fill="#F1416C"/>
<path d="M72.0478 10.7915C75.0164 10.7915 77.4228 8.3757 77.4228 5.39573C77.4228 2.41575 75.0164 0 72.0478 0C69.0793 0 66.6729 2.41575 66.6729 5.39573C66.6729 8.3757 69.0793 10.7915 72.0478 10.7915Z" fill="#F1416C"/>
<path d="M110.744 5.39573C110.744 8.37925 108.341 10.7915 105.369 10.7915C102.397 10.7915 99.9941 8.37925 99.9941 5.39573C99.9941 2.41221 102.397 0 105.369 0C108.341 0 110.744 2.41221 110.744 5.39573Z" fill="#F1416C"/>
<path d="M10.7605 35.3576C10.7605 38.3412 8.35757 40.7534 5.38552 40.7534C2.41347 40.7534 0 38.3412 0 35.3576C0 32.3741 2.40293 29.9619 5.37498 29.9619C8.34703 29.9619 10.7605 32.3741 10.7605 35.3576Z" fill="#F1416C"/>
<path d="M38.708 40.7534C41.6765 40.7534 44.083 38.3376 44.083 35.3576C44.083 32.3777 41.6765 29.9619 38.708 29.9619C35.7395 29.9619 33.333 32.3777 33.333 35.3576C33.333 38.3376 35.7395 40.7534 38.708 40.7534Z" fill="#F1416C"/>
<path d="M72.0478 40.7534C75.0164 40.7534 77.4228 38.3376 77.4228 35.3576C77.4228 32.3777 75.0164 29.9619 72.0478 29.9619C69.0793 29.9619 66.6729 32.3777 66.6729 35.3576C66.6729 38.3376 69.0793 40.7534 72.0478 40.7534Z" fill="#F1416C"/>
<path d="M110.744 35.3576C110.744 38.3412 108.341 40.7534 105.369 40.7534C102.397 40.7534 99.9941 38.3412 99.9941 35.3576C99.9941 32.3741 102.397 29.9619 105.369 29.9619C108.341 29.9619 110.744 32.3741 110.744 35.3576Z" fill="#F1416C"/>
<path d="M10.7605 65.32C10.7605 68.3036 8.35757 70.7158 5.38552 70.7158C2.41347 70.7158 0 68.3036 0 65.32C0 62.3365 2.40293 59.9243 5.37498 59.9243C8.34703 59.9243 10.7605 62.3365 10.7605 65.32Z" fill="#F1416C"/>
<path d="M38.708 70.7158C41.6765 70.7158 44.083 68.3 44.083 65.32C44.083 62.3401 41.6765 59.9243 38.708 59.9243C35.7395 59.9243 33.333 62.3401 33.333 65.32C33.333 68.3 35.7395 70.7158 38.708 70.7158Z" fill="#F1416C"/>
<path d="M72.0478 70.7158C75.0164 70.7158 77.4228 68.3 77.4228 65.32C77.4228 62.3401 75.0164 59.9243 72.0478 59.9243C69.0793 59.9243 66.6729 62.3401 66.6729 65.32C66.6729 68.3 69.0793 70.7158 72.0478 70.7158Z" fill="#F1416C"/>
<path d="M110.744 65.32C110.744 68.3036 108.341 70.7158 105.369 70.7158C102.397 70.7158 99.9941 68.3036 99.9941 65.32C99.9941 62.3365 102.397 59.9243 105.369 59.9243C108.341 59.9243 110.744 62.3365 110.744 65.32Z" fill="#F1416C"/>
<path d="M10.7605 95.282C10.7605 98.2655 8.35757 100.678 5.38552 100.678C2.41347 100.678 0 98.2549 0 95.282C0 92.309 2.40293 89.8862 5.37498 89.8862C8.34703 89.8862 10.7605 92.2984 10.7605 95.282Z" fill="#F1416C"/>
<path d="M38.708 100.678C41.6765 100.678 44.083 98.2619 44.083 95.282C44.083 92.302 41.6765 89.8862 38.708 89.8862C35.7395 89.8862 33.333 92.302 33.333 95.282C33.333 98.2619 35.7395 100.678 38.708 100.678Z" fill="#F1416C"/>
<path d="M72.0478 100.678C75.0164 100.678 77.4228 98.2619 77.4228 95.282C77.4228 92.302 75.0164 89.8862 72.0478 89.8862C69.0793 89.8862 66.6729 92.302 66.6729 95.282C66.6729 98.2619 69.0793 100.678 72.0478 100.678Z" fill="#F1416C"/>
<path d="M110.744 95.282C110.744 98.2655 108.341 100.678 105.369 100.678C102.397 100.678 99.9941 98.2655 99.9941 95.282C99.9941 92.2984 102.397 89.8862 105.369 89.8862C108.341 89.8862 110.744 92.2984 110.744 95.282Z" fill="#F1416C"/>
</g>
<g clip-path="url(#clip14_41_1236)">
<path d="M144.63 129.199C144.63 132.182 142.227 134.595 139.255 134.595C136.283 134.595 133.869 132.182 133.869 129.199C133.869 126.215 136.272 123.803 139.244 123.803C142.216 123.803 144.63 126.215 144.63 129.199Z" fill="#F1416C"/>
<path d="M172.577 134.595C175.546 134.595 177.952 132.179 177.952 129.199C177.952 126.219 175.546 123.803 172.577 123.803C169.609 123.803 167.202 126.219 167.202 129.199C167.202 132.179 169.609 134.595 172.577 134.595Z" fill="#F1416C"/>
<path d="M205.917 134.595C208.885 134.595 211.292 132.179 211.292 129.199C211.292 126.219 208.885 123.803 205.917 123.803C202.948 123.803 200.542 126.219 200.542 129.199C200.542 132.179 202.948 134.595 205.917 134.595Z" fill="#F1416C"/>
<path d="M244.613 129.199C244.613 132.182 242.21 134.595 239.238 134.595C236.266 134.595 233.863 132.182 233.863 129.199C233.863 126.215 236.266 123.803 239.238 123.803C242.21 123.803 244.613 126.215 244.613 129.199Z" fill="#F1416C"/>
<path d="M144.63 159.161C144.63 162.144 142.227 164.557 139.255 164.557C136.283 164.557 133.869 162.144 133.869 159.161C133.869 156.177 136.272 153.765 139.244 153.765C142.216 153.765 144.63 156.177 144.63 159.161Z" fill="#F1416C"/>
<path d="M172.577 164.557C175.546 164.557 177.952 162.141 177.952 159.161C177.952 156.181 175.546 153.765 172.577 153.765C169.609 153.765 167.202 156.181 167.202 159.161C167.202 162.141 169.609 164.557 172.577 164.557Z" fill="#F1416C"/>
<path d="M205.917 164.557C208.885 164.557 211.292 162.141 211.292 159.161C211.292 156.181 208.885 153.765 205.917 153.765C202.948 153.765 200.542 156.181 200.542 159.161C200.542 162.141 202.948 164.557 205.917 164.557Z" fill="#F1416C"/>
<path d="M244.613 159.161C244.613 162.144 242.21 164.557 239.238 164.557C236.266 164.557 233.863 162.144 233.863 159.161C233.863 156.177 236.266 153.765 239.238 153.765C242.21 153.765 244.613 156.177 244.613 159.161Z" fill="#F1416C"/>
<path d="M144.63 189.123C144.63 192.107 142.227 194.519 139.255 194.519C136.283 194.519 133.869 192.107 133.869 189.123C133.869 186.14 136.272 183.728 139.244 183.728C142.216 183.728 144.63 186.14 144.63 189.123Z" fill="#F1416C"/>
<path d="M172.577 194.519C175.546 194.519 177.952 192.103 177.952 189.123C177.952 186.143 175.546 183.728 172.577 183.728C169.609 183.728 167.202 186.143 167.202 189.123C167.202 192.103 169.609 194.519 172.577 194.519Z" fill="#F1416C"/>
<path d="M205.917 194.519C208.885 194.519 211.292 192.103 211.292 189.123C211.292 186.143 208.885 183.728 205.917 183.728C202.948 183.728 200.542 186.143 200.542 189.123C200.542 192.103 202.948 194.519 205.917 194.519Z" fill="#F1416C"/>
<path d="M244.613 189.123C244.613 192.107 242.21 194.519 239.238 194.519C236.266 194.519 233.863 192.107 233.863 189.123C233.863 186.14 236.266 183.728 239.238 183.728C242.21 183.728 244.613 186.14 244.613 189.123Z" fill="#F1416C"/>
<path d="M144.63 219.085C144.63 222.069 142.227 224.481 139.255 224.481C136.283 224.481 133.869 222.058 133.869 219.085C133.869 216.112 136.272 213.689 139.244 213.689C142.216 213.689 144.63 216.102 144.63 219.085Z" fill="#F1416C"/>
<path d="M172.577 224.481C175.546 224.481 177.952 222.065 177.952 219.085C177.952 216.105 175.546 213.689 172.577 213.689C169.609 213.689 167.202 216.105 167.202 219.085C167.202 222.065 169.609 224.481 172.577 224.481Z" fill="#F1416C"/>
<path d="M205.917 224.481C208.885 224.481 211.292 222.065 211.292 219.085C211.292 216.105 208.885 213.689 205.917 213.689C202.948 213.689 200.542 216.105 200.542 219.085C200.542 222.065 202.948 224.481 205.917 224.481Z" fill="#F1416C"/>
<path d="M244.613 219.085C244.613 222.069 242.21 224.481 239.238 224.481C236.266 224.481 233.863 222.069 233.863 219.085C233.863 216.102 236.266 213.689 239.238 213.689C242.21 213.689 244.613 216.102 244.613 219.085Z" fill="#F1416C"/>
</g>
<g clip-path="url(#clip15_41_1236)">
<path d="M144.63 5.39573C144.63 8.37925 142.227 10.7915 139.255 10.7915C136.283 10.7915 133.869 8.37925 133.869 5.39573C133.869 2.41221 136.272 0 139.244 0C142.216 0 144.63 2.41221 144.63 5.39573Z" fill="#F1416C"/>
<path d="M172.577 10.7915C175.546 10.7915 177.952 8.3757 177.952 5.39573C177.952 2.41575 175.546 0 172.577 0C169.609 0 167.202 2.41575 167.202 5.39573C167.202 8.3757 169.609 10.7915 172.577 10.7915Z" fill="#F1416C"/>
<path d="M205.917 10.7915C208.885 10.7915 211.292 8.3757 211.292 5.39573C211.292 2.41575 208.885 0 205.917 0C202.948 0 200.542 2.41575 200.542 5.39573C200.542 8.3757 202.948 10.7915 205.917 10.7915Z" fill="#F1416C"/>
<path d="M244.613 5.39573C244.613 8.37925 242.21 10.7915 239.238 10.7915C236.266 10.7915 233.863 8.37925 233.863 5.39573C233.863 2.41221 236.266 0 239.238 0C242.21 0 244.613 2.41221 244.613 5.39573Z" fill="#F1416C"/>
<path d="M144.63 35.3576C144.63 38.3412 142.227 40.7534 139.255 40.7534C136.283 40.7534 133.869 38.3412 133.869 35.3576C133.869 32.3741 136.272 29.9619 139.244 29.9619C142.216 29.9619 144.63 32.3741 144.63 35.3576Z" fill="#F1416C"/>
<path d="M172.577 40.7534C175.546 40.7534 177.952 38.3376 177.952 35.3576C177.952 32.3777 175.546 29.9619 172.577 29.9619C169.609 29.9619 167.202 32.3777 167.202 35.3576C167.202 38.3376 169.609 40.7534 172.577 40.7534Z" fill="#F1416C"/>
<path d="M205.917 40.7534C208.885 40.7534 211.292 38.3376 211.292 35.3576C211.292 32.3777 208.885 29.9619 205.917 29.9619C202.948 29.9619 200.542 32.3777 200.542 35.3576C200.542 38.3376 202.948 40.7534 205.917 40.7534Z" fill="#F1416C"/>
<path d="M244.613 35.3576C244.613 38.3412 242.21 40.7534 239.238 40.7534C236.266 40.7534 233.863 38.3412 233.863 35.3576C233.863 32.3741 236.266 29.9619 239.238 29.9619C242.21 29.9619 244.613 32.3741 244.613 35.3576Z" fill="#F1416C"/>
<path d="M144.63 65.32C144.63 68.3036 142.227 70.7158 139.255 70.7158C136.283 70.7158 133.869 68.3036 133.869 65.32C133.869 62.3365 136.272 59.9243 139.244 59.9243C142.216 59.9243 144.63 62.3365 144.63 65.32Z" fill="#F1416C"/>
<path d="M172.577 70.7158C175.546 70.7158 177.952 68.3 177.952 65.32C177.952 62.3401 175.546 59.9243 172.577 59.9243C169.609 59.9243 167.202 62.3401 167.202 65.32C167.202 68.3 169.609 70.7158 172.577 70.7158Z" fill="#F1416C"/>
<path d="M205.917 70.7158C208.885 70.7158 211.292 68.3 211.292 65.32C211.292 62.3401 208.885 59.9243 205.917 59.9243C202.948 59.9243 200.542 62.3401 200.542 65.32C200.542 68.3 202.948 70.7158 205.917 70.7158Z" fill="#F1416C"/>
<path d="M244.613 65.32C244.613 68.3036 242.21 70.7158 239.238 70.7158C236.266 70.7158 233.863 68.3036 233.863 65.32C233.863 62.3365 236.266 59.9243 239.238 59.9243C242.21 59.9243 244.613 62.3365 244.613 65.32Z" fill="#F1416C"/>
<path d="M144.63 95.282C144.63 98.2655 142.227 100.678 139.255 100.678C136.283 100.678 133.869 98.2549 133.869 95.282C133.869 92.309 136.272 89.8862 139.244 89.8862C142.216 89.8862 144.63 92.2984 144.63 95.282Z" fill="#F1416C"/>
<path d="M172.577 100.678C175.546 100.678 177.952 98.2619 177.952 95.282C177.952 92.302 175.546 89.8862 172.577 89.8862C169.609 89.8862 167.202 92.302 167.202 95.282C167.202 98.2619 169.609 100.678 172.577 100.678Z" fill="#F1416C"/>
<path d="M205.917 100.678C208.885 100.678 211.292 98.2619 211.292 95.282C211.292 92.302 208.885 89.8862 205.917 89.8862C202.948 89.8862 200.542 92.302 200.542 95.282C200.542 98.2619 202.948 100.678 205.917 100.678Z" fill="#F1416C"/>
<path d="M244.613 95.282C244.613 98.2655 242.21 100.678 239.238 100.678C236.266 100.678 233.863 98.2655 233.863 95.282C233.863 92.2984 236.266 89.8862 239.238 89.8862C242.21 89.8862 244.613 92.2984 244.613 95.282Z" fill="#F1416C"/>
</g>
</g>
<defs>
<clipPath id="clip0_41_1236">
<rect width="110.746" height="100.678" fill="white" transform="translate(264.051 367.266)"/>
</clipPath>
<clipPath id="clip1_41_1236">
<rect width="110.746" height="100.678" fill="white" transform="translate(264.051 243.462)"/>
</clipPath>
<clipPath id="clip2_41_1236">
<rect width="110.746" height="100.678" fill="white" transform="translate(397.919 367.266)"/>
</clipPath>
<clipPath id="clip3_41_1236">
<rect width="110.746" height="100.678" fill="white" transform="translate(397.919 243.462)"/>
</clipPath>
<clipPath id="clip4_41_1236">
<rect width="110.746" height="100.678" fill="white" transform="translate(0 367.266)"/>
</clipPath>
<clipPath id="clip5_41_1236">
<rect width="110.746" height="100.678" fill="white" transform="translate(0 243.462)"/>
</clipPath>
<clipPath id="clip6_41_1236">
<rect width="110.746" height="100.678" fill="white" transform="translate(133.869 367.266)"/>
</clipPath>
<clipPath id="clip7_41_1236">
<rect width="110.746" height="100.678" fill="white" transform="translate(133.869 243.462)"/>
</clipPath>
<clipPath id="clip8_41_1236">
<rect width="110.746" height="100.678" fill="white" transform="translate(264.051 123.804)"/>
</clipPath>
<clipPath id="clip9_41_1236">
<rect width="110.746" height="100.678" fill="white" transform="translate(264.051)"/>
</clipPath>
<clipPath id="clip10_41_1236">
<rect width="110.746" height="100.678" fill="white" transform="translate(397.919 123.803)"/>
</clipPath>
<clipPath id="clip11_41_1236">
<rect width="110.746" height="100.678" fill="white" transform="translate(397.919)"/>
</clipPath>
<clipPath id="clip12_41_1236">
<rect width="110.746" height="100.678" fill="white" transform="translate(0 123.804)"/>
</clipPath>
<clipPath id="clip13_41_1236">
<rect width="110.746" height="100.678" fill="white"/>
</clipPath>
<clipPath id="clip14_41_1236">
<rect width="110.746" height="100.678" fill="white" transform="translate(133.869 123.803)"/>
</clipPath>
<clipPath id="clip15_41_1236">
<rect width="110.746" height="100.678" fill="white" transform="translate(133.869)"/>
</clipPath>
</defs>
</svg>
