<svg width="781" height="653" viewBox="0 0 781 653" fill="none" xmlns="http://www.w3.org/2000/svg">
<mask id="mask0_21_4" style="mask-type:luminance" maskUnits="userSpaceOnUse" x="21" y="20" width="694" height="607">
<path d="M714.122 20.4062H21.5371V626.925H714.122V20.4062Z" fill="white"/>
</mask>
<g mask="url(#mask0_21_4)">
<g opacity="0.61" filter="url(#filter0_d_21_4)">
<path d="M655.326 303.271C655.054 354.944 656.891 409.055 639.23 458.438C620.754 510.088 578.881 538.906 527.215 554.2C446.451 578.098 365.03 571.216 282.951 560.458C240.206 554.857 195.5 547.046 161.845 520.11C103.571 473.459 100.091 390.338 97.223 321.909C93.9925 244.671 106.439 159.713 174.722 112.314C214.056 85.0034 261.709 79.7658 308.376 77.4985C365.472 74.7323 422.749 75.9907 479.664 81.2736C524.257 85.4115 570.867 92.6898 601.178 127.993C629.221 160.643 645.091 202.679 651.427 244.886C654.329 264.227 655.417 283.749 655.315 303.282L655.326 303.271Z" fill="white"/>
</g>
<path d="M358.456 91.8965C346.679 91.8965 337.123 101.453 337.123 113.232C337.123 125.011 346.679 134.568 358.456 134.568C370.233 134.568 379.789 125.011 379.789 113.232C379.789 101.453 370.233 91.8965 358.456 91.8965ZM358.456 125.261C351.814 125.261 346.429 119.876 346.429 113.232C346.429 106.589 351.814 101.204 358.456 101.204C365.098 101.204 370.483 106.589 370.483 113.232C370.483 119.876 365.098 125.261 358.456 125.261Z" fill="#F1416C"/>
<path d="M310.225 147.889C311.687 156.947 317.649 165.155 325.799 169.349C333.949 173.544 344.106 173.601 352.312 169.52C358.014 166.685 363.047 159.407 359.227 154.306C355.951 149.93 348.379 151.46 345.296 155.972C342.213 160.484 342.507 166.481 343.63 171.832C347.699 191.411 361.539 208.7 379.744 216.964C397.948 225.229 420.075 224.265 437.486 214.447C444.117 210.706 450.204 205.605 453.706 198.848C457.209 192.091 457.742 183.52 453.808 177.013C452.856 175.449 451.485 173.918 449.66 173.737C445.67 173.351 444.31 179.269 445.942 182.942C448.617 188.951 455.305 192.907 461.868 192.363C468.42 191.819 474.371 186.808 476.014 180.437C477.533 174.542 475.618 168.272 476.536 162.253C477.919 153.195 486.488 145.803 495.647 145.758" stroke="#5B7799" stroke-miterlimit="10"/>
<path d="M302.981 253.106C323.678 253.106 340.456 236.326 340.456 215.626C340.456 194.927 323.678 178.147 302.981 178.147C282.285 178.147 265.507 194.927 265.507 215.626C265.507 236.326 282.285 253.106 302.981 253.106Z" stroke="#5B7799" stroke-miterlimit="10"/>
<path d="M351.257 267.299H270.992V291.741H351.257V267.299Z" stroke="#5B7799" stroke-miterlimit="10"/>
<path d="M304.851 291.628H270.992V313.361H304.851V291.628Z" stroke="#5B7799" stroke-miterlimit="10"/>
<path d="M214.701 185.81H280.389" stroke="#5B7799" stroke-width="0.5" stroke-miterlimit="10"/>
<path d="M206.269 197.601H270.562" stroke="#5B7799" stroke-width="0.5" stroke-miterlimit="10"/>
<path d="M206.269 209.402H267.286" stroke="#5B7799" stroke-width="0.5" stroke-miterlimit="10"/>
<path d="M214.701 221.193H265.971" stroke="#5B7799" stroke-width="0.5" stroke-miterlimit="10"/>
<path d="M213.388 185.924C213.388 187.93 211.755 189.563 209.749 189.563C207.743 189.563 206.11 187.93 206.11 185.924C206.11 183.917 207.743 182.285 209.749 182.285C211.755 182.285 213.388 183.917 213.388 185.924Z" fill="#5B7799"/>
<path d="M213.818 220.648C213.818 222.655 212.186 224.288 210.18 224.288C208.173 224.288 206.541 222.655 206.541 220.648C206.541 218.642 208.173 217.009 210.18 217.009C212.186 217.009 213.818 218.642 213.818 220.648Z" fill="#5B7799"/>
<path d="M205.52 208.847C205.52 210.853 203.888 212.486 201.882 212.486C199.875 212.486 198.243 210.853 198.243 208.847C198.243 206.84 199.875 205.208 201.882 205.208C203.888 205.208 205.52 206.84 205.52 208.847Z" fill="#5B7799"/>
<path d="M205.52 196.841C205.52 198.848 203.888 200.48 201.882 200.48C199.875 200.48 198.243 198.848 198.243 196.841C198.243 194.834 199.875 193.202 201.882 193.202C203.888 193.202 205.52 194.834 205.52 196.841Z" fill="#5B7799"/>
<path d="M299.218 243.537C299.139 240.93 301.19 238.742 303.797 238.663C306.404 238.583 308.592 240.635 308.672 243.243C308.672 243.401 308.649 243.56 308.638 243.719C310.474 243.356 312.242 242.812 313.931 242.109C313.818 241.973 313.704 241.848 313.614 241.69C312.242 239.468 312.922 236.554 315.144 235.171C317.366 233.799 320.279 234.479 321.662 236.701C321.752 236.849 321.809 237.007 321.888 237.166C323.283 235.942 324.564 234.581 325.697 233.108C325.527 233.04 325.346 232.983 325.176 232.892C322.875 231.656 322.002 228.788 323.249 226.487C324.484 224.186 327.352 223.313 329.653 224.56C329.823 224.65 329.97 224.775 330.129 224.877C330.73 223.131 331.161 221.306 331.41 219.424C331.206 219.458 331.002 219.503 330.787 219.503C328.18 219.583 325.992 217.531 325.912 214.923C325.833 212.316 327.885 210.128 330.492 210.049C330.707 210.049 330.923 210.071 331.127 210.094C330.764 208.212 330.209 206.398 329.506 204.675C329.324 204.822 329.154 204.981 328.95 205.106C326.729 206.477 323.815 205.797 322.433 203.575C321.061 201.353 321.741 198.44 323.963 197.057C324.167 196.932 324.382 196.841 324.598 196.75C323.351 195.322 321.956 194.007 320.449 192.851C320.37 193.089 320.279 193.315 320.165 193.542C318.93 195.844 316.062 196.716 313.761 195.469C311.46 194.234 310.587 191.365 311.834 189.064C311.959 188.837 312.106 188.645 312.253 188.441C310.462 187.828 308.604 187.398 306.677 187.148C306.722 187.398 306.767 187.658 306.779 187.919C306.858 190.527 304.806 192.715 302.199 192.794C299.581 192.873 297.404 190.821 297.325 188.214C297.325 187.953 297.348 187.715 297.382 187.466C295.477 187.84 293.652 188.407 291.907 189.143C292.077 189.336 292.235 189.529 292.383 189.756C293.754 191.978 293.074 194.891 290.852 196.274C288.631 197.646 285.718 196.966 284.335 194.744C284.21 194.54 284.108 194.313 284.017 194.098C282.589 195.356 281.297 196.762 280.152 198.27C280.379 198.349 280.605 198.428 280.821 198.553C283.122 199.789 283.995 202.657 282.748 204.958C281.501 207.26 278.644 208.133 276.343 206.886C276.139 206.772 275.969 206.648 275.788 206.511C275.198 208.28 274.779 210.128 274.541 212.032C274.756 211.998 274.983 211.953 275.21 211.942C277.817 211.862 280.005 213.914 280.084 216.522C280.163 219.129 278.112 221.317 275.505 221.397C275.3 221.397 275.108 221.374 274.915 221.351C275.289 223.211 275.856 225.002 276.57 226.702C276.729 226.578 276.876 226.442 277.046 226.34C279.268 224.968 282.181 225.648 283.564 227.87C284.935 230.092 284.255 233.006 282.034 234.389C281.875 234.479 281.716 234.547 281.558 234.615C282.793 235.998 284.153 237.268 285.638 238.391C285.706 238.221 285.763 238.05 285.842 237.892C287.078 235.59 289.946 234.717 292.247 235.964C294.548 237.2 295.421 240.068 294.174 242.37C294.094 242.517 293.992 242.642 293.89 242.778C295.625 243.356 297.427 243.776 299.286 244.014C299.263 243.844 299.229 243.673 299.218 243.503V243.537ZM283.7 216.204C283.371 205.559 291.737 196.66 302.38 196.32C313.024 195.991 321.922 204.357 322.263 215.003C322.591 225.648 314.226 234.547 303.582 234.887C292.938 235.216 284.04 226.85 283.7 216.204Z" fill="white"/>
<path d="M317.412 211.681C315.246 203.734 307.028 199.029 299.082 201.195C291.136 203.36 286.432 211.579 288.597 219.537C290.762 227.485 298.98 232.189 306.938 230.024C314.884 227.859 319.588 219.639 317.423 211.692L317.412 211.681ZM305.453 224.594C300.499 225.943 295.364 223.007 294.016 218.052C292.667 213.098 295.602 207.963 300.556 206.613C305.509 205.264 310.644 208.201 311.993 213.155C313.342 218.109 310.406 223.245 305.453 224.594Z" fill="#70A1BD"/>
<path d="M560.088 409.157V494.364" stroke="black" stroke-width="4" stroke-miterlimit="10"/>
<path d="M596.021 493.525H525.561" stroke="black" stroke-width="5" stroke-miterlimit="10"/>
<path d="M619.677 365.09C614.87 379.522 607.537 392.684 595.714 402.502C590.602 406.742 586.294 408.919 580.003 410.608C572.397 412.66 564.496 413.136 556.664 413.397C545.238 413.771 533.789 413.748 522.363 413.306C515.279 413.034 507.208 412.082 503.127 406.288C496.031 396.21 503.229 383.751 513.227 380.123C522.851 376.631 533.075 374.976 542.177 370.079C561.232 359.808 566.242 336.601 571.23 317.374C574.857 303.384 577.181 288.012 587.258 276.833C599.931 262.776 619.949 265.531 628.359 282.479C634.401 294.644 630.014 309.642 628.711 322.419C627.249 336.782 624.245 351.373 619.665 365.102L619.677 365.09Z" fill="#70A1BD"/>
<path d="M441.997 443.405C438.426 444.459 432.532 443.178 430.616 440.775C428.417 438.02 431.092 433.44 432.317 430.787C442.02 409.803 446.984 388.036 464.429 371.496C465.733 370.26 467.127 369.024 468.827 368.435C472.205 367.244 476.173 368.968 478.134 371.961C480.265 375.214 481.172 381.778 481.58 385.757C482.203 391.789 480.106 398.001 476.978 403.08C472.999 409.553 467.309 414.734 461.777 419.938C456.245 425.142 450.702 430.549 447.2 437.283C446.248 439.108 445.409 441.081 443.867 442.453C443.38 442.884 442.734 443.201 441.997 443.428V443.405Z" fill="#D98C73"/>
<path d="M438.165 437.249C435.252 435.923 432.997 433.882 431.466 431.32C430.299 431.683 428.916 432.284 428.077 432.352C426.003 432.522 423.883 432.272 421.82 432.034C418.555 431.66 403.105 427.262 403.105 433.678C403.105 438.156 414.203 442.85 417.275 444.335C421.287 446.273 425.447 447.849 429.743 449.04C432.373 449.765 438.506 453.007 440.886 451.103C441.385 450.695 441.691 450.105 441.985 449.527C443.686 446.137 445.386 442.736 447.098 439.347C444.026 439.12 440.965 438.519 438.165 437.249Z" fill="black"/>
<path d="M477.806 423.656C476.071 426.876 474.212 430.005 472.172 433.009C458.264 429.62 444.684 424.858 431.705 418.804C437.735 414.304 440.229 401.323 443.879 394.759C448.912 385.723 454.682 377.13 460.055 368.299C465.722 358.98 471.787 348.391 480.787 341.839C500.159 327.736 525.618 342.02 545.976 345.41C556.382 347.144 567.456 356.157 576.32 348.822C604.081 415.709 542.428 401.13 533.088 393.024C527.692 385.531 507.946 358.22 498.674 376.869C491.147 392.027 485.854 408.749 477.806 423.645V423.656Z" fill="#E8654B"/>
<path d="M499.739 493.412C478.236 516.652 485.74 446.874 496.939 445.571C525.731 439.562 503.106 482.551 499.739 493.412Z" fill="#D98C73"/>
<path d="M469.587 468.754C481.205 467.734 504.261 471.815 510.008 468.029C514.111 465.33 515.687 450.128 516.537 445.525C517.954 437.884 518.736 430.141 520.017 422.477C520.856 417.455 521.559 407.059 525.458 403.341C529.652 399.35 547.732 401.255 546.893 393.138C546.587 390.201 540.659 386.506 538.72 384.408C536 381.483 533.37 378.491 530.525 375.679C524.959 370.158 518.544 364.127 510.983 361.508C505.327 359.558 495.08 360.556 493.323 367.993C485.377 401.731 477.34 435.798 469.575 468.754H469.587ZM521.593 401.935V406.878C521.468 405.313 521.445 403.59 521.593 401.935Z" fill="#E8654B"/>
<path d="M461.753 505.826C465.891 498.241 477.747 496.87 484.288 489.24C489.343 490.215 495.623 490.85 502.311 488.197C502.696 488.276 503.093 488.367 503.478 488.48C508.704 508.377 455.712 519.793 461.753 505.826Z" fill="black"/>
<path d="M553.865 397.673C543.471 394.26 534.765 382.821 525.731 374.852C483.077 342.825 486.987 402.479 480.492 425.028" stroke="#131834" stroke-miterlimit="10"/>
<path d="M605.769 337.395C610.632 350.353 604.114 361.123 590.818 356.792C567.762 348.425 553.298 259.602 591.101 295.607C597.29 308.429 601.303 323.416 605.781 337.395H605.769Z" fill="#D6906F"/>
<path d="M576.932 272.22C583.053 274.77 586.374 280.654 588.947 286.436C590.183 289.213 591.464 292.048 592.484 294.905C593.595 298.045 595.692 301.446 595.987 304.79C596.032 305.289 596.021 305.811 595.771 306.241C595.601 306.547 595.318 306.774 595.046 306.99C591.18 310.107 587.315 312.964 582.804 315.027C581.477 315.628 580.14 316.24 578.859 316.932C577.125 317.862 575.878 319.245 574.246 320.31C573.384 320.877 572.466 321.353 571.502 321.727C572.08 322.033 572.364 322.702 572.579 323.326C575.05 330.196 576.411 337.497 577.918 344.65C578.542 347.643 579.743 351.532 578.859 354.593C578.202 356.86 576.195 357.563 574.053 357.914C569.87 358.606 565.495 358.402 561.278 358.549C554.896 358.776 548.582 359.422 542.223 359.955C506.665 362.891 506.574 357.076 501.79 325.491C491.929 265.315 530.231 251.813 576.943 272.22H576.932Z" fill="#F2B430"/>
<path d="M521.026 310.527C525.027 370.226 499.058 361.032 499.036 346.657C491.554 271.879 522.284 276.664 521.026 310.527Z" fill="#D56D5B"/>
<path d="M513.919 311.116C519.938 310.402 525.957 309.653 531.965 308.848C530.106 294.496 534.583 271.823 526.003 261.109C496.146 256.756 499.365 293.521 495.137 313.168C501.405 312.533 507.674 311.841 513.931 311.105L513.919 311.116Z" fill="#F2B430"/>
<path d="M535.195 226.691C551.654 235.896 536.963 260.576 550.668 267.288C542.88 270.19 534.277 270.904 526.115 269.329C526.467 269.397 526.251 264.125 526.217 263.785C525.866 260.146 523.225 260.27 520.436 259.284C518.714 258.672 517.297 257.38 516.242 255.883C512.944 251.212 511.844 244.762 511.119 239.195C510.541 234.774 511.119 230.489 514.417 227.201C516.356 225.262 518.328 225.308 520.652 224.197C523.191 222.984 524.971 222.927 527.748 223.596C530.366 224.219 532.849 225.387 535.195 226.691Z" fill="#D6906F"/>
<path d="M515.052 234.252C515.891 233.538 516.718 232.813 517.704 232.314C518.6 231.86 520.436 231.441 521.32 232.144C522.034 232.722 521.762 233.323 521.842 234.128C522.091 236.52 523.689 237.449 525.9 235.987C526.988 235.261 528.258 234.332 529.47 234.819C531.25 235.534 530.468 237.393 530.933 238.731C531.579 240.578 533.052 242.698 534.322 244.184C536.067 246.247 538.074 248.662 540.522 249.954C548.094 253.956 546.371 242.2 547.788 238.708C548.196 237.71 548.718 236.735 548.797 235.658C548.978 233.209 546.938 231.384 544.943 229.797C544.626 229.548 544.308 229.298 543.991 229.049C543.707 228.822 543.413 228.584 543.288 228.244C542.937 227.337 544.444 225.308 544.49 224.106C544.558 222.02 543.152 219.707 541.588 218.426C539.434 216.646 536.317 216.125 533.698 217.089C532.554 217.508 531.329 218.2 530.207 217.735C528.564 217.055 528.836 215.071 527.441 214.073C526.194 213.189 524.347 213.03 523.1 213.96C522.522 214.39 522.068 215.003 521.456 215.377C520.062 216.227 518.282 215.705 516.661 215.83C514.893 215.966 513.204 216.941 512.207 218.404C511.436 219.526 511.051 220.92 510.03 221.827C508.942 222.802 507.367 222.995 506.04 223.596C502.594 225.172 501.166 229.979 503.082 233.244C504.998 236.52 509.724 237.676 513 235.783C513.748 235.352 514.406 234.797 515.075 234.241L515.052 234.252Z" fill="black"/>
<path d="M538.947 239.83C539.831 240.987 540.319 242.472 540.205 244.036C540.081 245.691 539.128 247.301 537.643 248.061C531.103 251.405 525.56 239.91 533.177 237.824C535.501 237.189 537.643 238.141 538.936 239.83H538.947Z" fill="#D6906F"/>
<path d="M570.663 322.963C568.158 317.986 564.066 312.545 561.674 307.454" stroke="black" stroke-width="0.5" stroke-miterlimit="10"/>
<path d="M547.823 359.581C536.76 360.896 524.563 362.336 513.919 359.195C525.504 341.601 528.473 351.747 545.068 348.595C610.348 317.125 616.832 354.185 597.891 357.427C580.695 357.994 564.95 357.279 547.823 359.581Z" fill="#D6906F"/>
<path d="M464.123 270.02C464.044 270.564 464.146 271.131 464.418 271.607C463.228 271.993 462.684 273.659 463.42 274.68C463.477 274.759 463.545 274.85 463.545 274.94C463.545 275.065 463.454 275.167 463.386 275.258C461.743 277.378 465.937 280.45 467.172 281.618C468.873 283.227 470.947 284.214 473.305 284.486C475.379 293.691 477.238 302.852 478.882 312.136C480.729 322.51 483.257 336.08 495.635 338.154C497.132 338.404 499.161 338.732 500.668 338.392C510.802 336.068 501.983 314.948 500.011 309.744C497.131 302.16 493.697 294.78 489.99 287.569C488.233 284.146 486.42 280.767 484.515 277.434C483.665 275.949 482.872 274.362 481.908 272.945C480.605 271.029 479.086 269.465 478.338 267.163C478.066 266.324 477.884 265.463 477.805 264.578C477.658 263.048 477.805 261.506 477.952 259.987C477.975 259.749 477.998 259.477 477.85 259.273C477.658 259.012 477.249 258.989 476.966 259.159C476.683 259.318 476.501 259.613 476.343 259.896C475.3 261.71 474.608 263.728 474.325 265.803C474.268 266.222 474.223 266.619 474.053 267.005C472.035 265.803 467.682 261.665 465.994 265.576C465.653 266.358 465.687 267.277 466.084 268.025C465.325 268.15 464.633 268.671 464.305 269.374C464.214 269.578 464.146 269.793 464.112 270.02H464.123Z" fill="#D6906F"/>
<path d="M514.576 297.999C515.664 303.962 515.619 313.191 516.242 320.56" stroke="black" stroke-width="0.5" stroke-miterlimit="10"/>
<path d="M465.654 282.298L464.906 287.263L467.638 283.069L465.654 282.298Z" fill="#5B7799"/>
<path d="M576.139 337.349C580.435 337.78 584.663 338.857 588.63 340.524" stroke="black" stroke-width="0.5" stroke-miterlimit="10"/>
<path d="M478.78 251.28C475.731 259.261 469.632 275.054 466.583 283.035" stroke="black" stroke-width="3" stroke-miterlimit="10"/>
<path d="M518.703 252.811C520.415 252.629 522.07 251.859 523.305 250.646" stroke="black" stroke-miterlimit="10"/>
<mask id="mask1_21_4" style="mask-type:luminance" maskUnits="userSpaceOnUse" x="510" y="223" width="41" height="48">
<path d="M535.195 226.691C551.654 235.896 536.963 260.576 550.668 267.288C542.88 270.19 534.277 270.904 526.115 269.329C526.467 269.397 526.251 264.125 526.217 263.785C525.866 260.146 523.225 260.27 520.436 259.284C518.714 258.672 517.297 257.38 516.242 255.883C512.944 251.212 511.844 244.762 511.119 239.195C510.541 234.774 511.119 230.489 514.417 227.201C516.356 225.262 518.328 225.308 520.652 224.197C523.191 222.984 524.971 222.927 527.748 223.596C530.366 224.219 532.849 225.387 535.195 226.691Z" fill="white"/>
</mask>
<g mask="url(#mask1_21_4)">
<path d="M523.496 260.712C523.474 260.633 523.451 260.531 523.417 260.452C526.013 260.146 528.79 259.488 530.921 258.128C529.957 260.066 526.988 263.025 524.732 265.213C524.687 264.635 524.46 262.084 523.496 260.712Z" fill="black"/>
</g>
<path d="M538.097 242.381C537.134 240.578 534.765 239.683 532.849 240.386C532.056 240.68 531.308 241.281 531.16 242.109" stroke="black" stroke-width="0.5" stroke-miterlimit="10"/>
<path d="M533.948 240.295C535.263 240.839 535.966 242.54 535.411 243.855" stroke="black" stroke-width="0.5" stroke-miterlimit="10"/>
<path d="M467.751 263.966C470.222 264.068 472.659 264.839 474.734 266.188C475.176 266.472 475.629 266.846 475.675 267.367C475.754 268.252 474.654 268.716 473.77 268.807C472.444 268.943 471.095 268.875 469.803 268.592C468.851 268.388 467.865 268.025 467.264 267.243C466.674 266.46 466.674 265.179 467.491 264.635" fill="#D6906F"/>
<path d="M474.052 273.353C473.678 275.915 472.782 281.72 469.869 281.765C469.325 281.765 468.815 281.561 468.316 281.357C467.591 281.062 466.865 280.756 466.14 280.461C465.777 280.314 465.426 280.167 465.108 279.951C463.714 278.999 463.521 276.97 463.986 275.349C464.474 273.671 465.891 269.487 467.92 269.193C468.373 269.125 468.838 269.238 469.291 269.351C470.413 269.635 471.536 269.907 472.658 270.19C473.009 270.281 473.361 270.372 473.644 270.598C474.29 271.12 474.256 272.095 474.131 272.911C474.109 273.047 474.086 273.195 474.063 273.365L474.052 273.353Z" fill="#D6906F"/>
<path d="M624.971 343.494C576.059 322.532 514.916 368.673 540.681 415.517" stroke="black" stroke-width="3" stroke-miterlimit="10"/>
<path d="M474.802 265.939C475.096 266.245 475.572 266.37 475.844 266.71C476.275 267.231 476.003 268.081 475.47 268.49C474.938 268.898 474.223 269 473.555 269.079" stroke="black" stroke-width="0.5" stroke-miterlimit="10"/>
<path d="M469.484 281.425C470.108 281.618 470.731 281.754 471.377 281.833C472.103 281.924 472.998 281.867 473.35 281.232C473.769 280.484 473.134 279.611 472.545 278.988C473.486 278.988 474.585 278.727 474.959 277.865C475.22 277.253 475.005 276.516 474.585 275.995C474.166 275.473 473.576 275.133 472.998 274.793C473.973 274.68 475.05 274.498 475.651 273.727C476.036 273.229 476.138 272.537 475.923 271.959C475.707 271.369 475.186 270.916 474.574 270.78" stroke="black" stroke-width="0.5" stroke-miterlimit="10"/>
<path d="M626.172 360.703L639.82 509.476" stroke="black" stroke-miterlimit="10"/>
<path d="M634.832 355.477H426.195V362.404H634.832V355.477Z" fill="#ADACA5"/>
<path d="M458.626 355.602H547.415C548.582 355.602 549.523 354.649 549.523 353.493C549.523 352.325 548.571 351.373 547.415 351.373H458.626C457.458 351.373 456.506 352.314 456.506 353.493C456.506 354.661 457.458 355.602 458.626 355.602Z" fill="black"/>
<path d="M456.222 355.602H535.717L528.802 309.914C528.564 308.327 527.215 307.148 525.651 307.148H452.459C450.566 307.148 449.149 308.849 449.433 310.765L456.222 355.602Z" fill="black"/>
<path d="M484.912 328.11C484.912 330.207 486.612 331.919 488.721 331.919C490.829 331.919 492.529 330.219 492.529 328.11C492.529 326.001 490.829 324.301 488.721 324.301C486.612 324.301 484.912 326.001 484.912 328.11Z" stroke="#6BA7B3" stroke-miterlimit="10"/>
<path d="M197.699 244.728C198.221 246.236 198.255 247.948 199.173 249.251C199.615 249.864 200.216 250.351 200.658 250.963C201.678 252.358 201.701 254.228 201.678 255.963C201.678 256.586 201.655 257.232 201.429 257.822C201.202 258.389 200.771 258.865 200.295 259.25C198.414 260.758 195.818 260.985 193.415 260.792C191.465 260.634 189.504 260.237 187.826 259.228C186.149 258.219 184.8 256.541 184.573 254.602C184.245 251.961 185.99 249.489 187.974 247.71C189.719 246.145 191.544 244.399 193.369 242.948C195.092 241.576 196.974 242.642 197.699 244.717V244.728Z" fill="black"/>
<path d="M194.503 424.519V508.57" stroke="black" stroke-width="4" stroke-miterlimit="10"/>
<path d="M224.156 507.742H164.85" stroke="black" stroke-width="5" stroke-miterlimit="10"/>
<path d="M283.484 450.729C287.508 447.793 289.605 446.557 293.323 443.224C300.669 462.996 315.824 495.317 317.853 501.042C312.503 503.74 308.909 507.424 303.287 509.578C288.631 493.321 284.811 480.432 268.59 461C273.657 457.713 278.622 454.266 283.496 450.718L283.484 450.729Z" fill="#D98C73"/>
<path d="M184.97 440.923C167.434 439.143 151.871 431.967 139.141 419.847C125.765 407.128 120.109 386.835 116.062 369.342C112.48 353.822 110.055 337.769 112.084 321.966C114.113 306.162 121.005 290.506 133.383 280.473C138.246 276.528 144.151 273.444 150.42 273.433C156.767 273.421 162.82 276.584 167.411 280.972C172.013 285.359 175.335 290.88 178.372 296.458C185.049 308.735 190.592 321.875 195.999 334.651C200.998 346.464 205.724 359.071 215.212 368.118C226.309 381.722 242.371 387.549 256.914 395.859C299.184 447.43 212.832 448.507 184.958 440.934L184.97 440.923Z" fill="#70A1BD"/>
<path d="M147.302 386.472C146.838 384.737 146.248 383.026 145.455 381.348C144.276 378.854 142.677 376.303 143.029 373.559C143.38 370.725 145.727 368.571 148.096 366.995C154.398 362.812 166.992 358.368 174.518 361.134C177.171 362.109 179.302 364.082 181.58 365.76C202.845 381.506 232.226 373.797 255.724 383.57C274.348 391.324 285.128 410.914 292.122 428.724C298.39 444.72 306.858 459.311 312.276 475.613C301.813 479.502 288.744 484.966 278.281 488.866C277.488 489.161 276.672 489.456 275.833 489.365C273.917 489.149 272.84 487.109 272.104 485.329C264.826 467.859 257.549 450.4 250.272 432.93C244.706 419.575 224.495 424.609 212.333 423.985C201.598 423.441 189.163 423.906 178.735 420.993C169.474 418.408 159.839 414.156 153.888 406.266C149.297 400.167 149.15 393.183 147.314 386.449L147.302 386.472Z" fill="#F2B430"/>
<path d="M143.947 382.447C144.582 384.307 144.956 385.565 145.5 386.449C246.928 384.001 194.775 358.47 216.017 304.711C219.633 298.238 220.438 290.925 215.031 283.216C187.849 258.264 150.068 272.718 146.033 309.2C130.957 347.984 134.573 356.69 143.947 382.447Z" fill="#E8654B"/>
<path d="M320.471 496.428C378.212 490.68 328.394 510.927 308.308 515.916C303.898 516.29 301.382 509.238 297.834 504.851C315.959 502.992 308.897 484.898 320.471 496.428Z" fill="black"/>
<path d="M303.685 415.177C304.58 402.434 303.424 389.057 296.215 378.604C286.24 364.139 267.446 358.98 250.046 356.486C239.561 354.99 227.852 354.196 217.899 358.55C207.097 363.277 202.835 374.183 193.132 380.294C213.229 384.443 229.031 400.303 243.642 413.612C250.352 419.723 256.791 425.663 264.873 429.779C275.743 435.322 283.961 446.421 292.531 455.241C299.309 444.006 302.256 430.856 303.458 417.784C303.537 416.923 303.605 416.05 303.673 415.177H303.685Z" fill="#F2B430"/>
<path d="M147.258 285.45C131.864 310.323 109.42 398.444 162.345 355.772C169.531 329.312 175.494 300.006 170.824 272.435C160.769 273.932 153.129 278.738 147.258 285.461V285.45Z" fill="#E8654B"/>
<path d="M171.027 305.266C158.241 310.833 162.957 344.356 157.198 353.278" stroke="#131834" stroke-width="0.5" stroke-miterlimit="10"/>
<path d="M116.596 374.659C206.371 350.841 228.237 412.139 205.702 443.088" stroke="black" stroke-width="3" stroke-miterlimit="10"/>
<path d="M248.934 381.779C234.142 379.523 224.62 381.495 205.565 381.495" stroke="#131834" stroke-width="0.5" stroke-miterlimit="10"/>
<path d="M159.183 344.469C203.866 360.057 224.134 347.711 222.649 364.059C194.413 364.705 164.635 368.662 135.537 367.585C114.125 350.296 145.217 340.615 159.183 344.458V344.469Z" fill="#D6906F"/>
<path d="M111.834 366.735L96.5205 513.841" stroke="black" stroke-miterlimit="10"/>
<path d="M257.889 242.257C260.915 236.033 264.905 230.421 268.442 224.492C268.759 224.492 270.856 220.739 271.185 220.195C272.216 218.506 273.021 216.681 274.098 215.014C276.229 211.67 278.746 208.575 281.591 205.809C282.191 205.231 282.849 204.63 283.665 204.471C284.209 205.197 283.79 206.217 283.37 207.022C282.305 209.028 280.128 211.658 279.89 213.949C280.4 213.903 280.911 213.869 281.398 214.028C281.885 214.187 282.316 214.583 282.361 215.094C282.384 215.4 282.282 215.774 282.531 215.966C282.736 216.125 283.019 216.023 283.268 216.023C283.869 216 284.379 216.522 284.549 217.1C284.719 217.678 284.629 218.291 284.527 218.891C285.127 218.687 285.762 219.265 285.864 219.889C285.966 220.513 285.705 221.136 285.433 221.714C284.198 224.299 282.418 227.711 279.641 228.97C279.426 229.072 279.188 229.151 279.029 229.333C278.927 229.435 278.859 229.571 278.791 229.707C276.49 234.298 275.662 239.502 274.223 244.399C272.658 249.716 270.947 254.999 269.36 260.316C267.218 267.492 264.894 274.986 259.6 280.28C256.472 283.409 252.119 285.642 247.732 285.098C244.15 284.656 240.738 281.924 239.854 278.353C238.834 274.249 241.452 272.084 243.652 268.728C249.16 260.339 253.536 251.281 257.923 242.279L257.889 242.257Z" fill="#D6906F"/>
<path d="M305.837 362.891H103.718V369.807H305.837V362.891Z" fill="#ADACA5"/>
<path d="M277.862 358.425H183.111C182.159 358.425 181.388 359.196 181.388 360.148V361.168C181.388 362.12 182.159 362.892 183.111 362.892H277.862C278.814 362.892 279.585 362.12 279.585 361.168V360.148C279.585 359.196 278.814 358.425 277.862 358.425Z" fill="black"/>
<path d="M279.892 362.891H195.977L203.276 314.665C203.526 312.987 204.954 311.74 206.598 311.74H283.859C285.854 311.74 287.35 313.542 287.044 315.56L279.88 362.891H279.892Z" fill="black"/>
<path d="M248.89 335.831L252.528 338.857" stroke="#6BA7B3" stroke-miterlimit="10"/>
<path d="M244.105 335.831L247.744 338.857" stroke="#131834" stroke-width="0.5" stroke-miterlimit="10"/>
<path d="M239.322 335.831L242.961 338.857" stroke="#6BA7B3" stroke-miterlimit="10"/>
<path d="M252.392 267.98C252.052 267.481 251.678 267.005 251.236 266.585C246.543 261.994 237.611 264.205 232.057 265.599C224.927 267.39 217.445 270.134 210.134 270.916C208.298 271.109 192.916 271.8 192.916 271.8C192.712 273.433 192.598 275.077 192.564 276.72C193.086 283.647 194.208 290.529 195.33 297.376C196.486 304.405 196.554 306.842 203.888 305.391C215.87 303.011 226.808 298.113 238.484 295.086C242.156 294.134 245.874 293.159 249.241 291.413C251.145 290.427 252.947 289.157 254.24 287.434C256.065 284.985 256.677 281.788 256.393 278.75C256.11 275.711 254.988 272.809 253.605 270.088C253.242 269.363 252.857 268.649 252.403 267.98H252.392Z" fill="#E8654B"/>
<path d="M195.817 236.985C195.239 235.103 194.49 233.266 193.538 231.543C193.062 230.682 185.286 232.042 184.209 232.223C181.432 232.7 178.621 233.482 176.184 234.933C170.822 238.13 168.737 244.059 170.437 249.977C171.196 252.63 172.33 255.226 172.693 257.935C173.52 258.752 174.359 259.545 175.277 260.248C175.844 260.475 176.286 260.894 176.671 261.359C176.864 261.597 176.989 261.994 177 262.345C178.791 262.719 180.593 263.037 182.316 263.604C184.085 264.182 185.264 265.066 187.213 264.692C190.342 264.08 192.801 261.688 194.343 259.012C198.072 252.562 197.925 243.923 195.817 236.974V236.985Z" fill="#D6906F"/>
<path d="M178.633 281.403C181.886 282.105 185.57 281.913 188.562 280.575C191.306 279.351 193.618 277.027 194.502 274.147C192.938 274.204 191.487 273.161 190.693 271.812C189.9 270.463 189.662 268.864 189.583 267.3C189.526 266.053 189.571 264.805 189.707 263.558C189.809 262.663 190.625 260.702 190.41 259.897C190.013 258.446 186.454 257.391 185.06 256.836C182.861 255.974 180.571 255.317 178.247 254.897C177.658 254.795 171.866 254.398 171.832 254.308C173.248 258.899 173.509 263.842 172.602 268.569C172.432 269.454 172.217 270.361 171.696 271.097C170.562 272.741 168.363 273.195 166.391 273.501C168.952 277.14 172.886 279.668 177.125 280.994C177.613 281.142 178.1 281.278 178.61 281.391L178.633 281.403Z" fill="#D6906F"/>
<path d="M158.932 255.861C159.442 257.89 161.029 259.511 162.832 260.588C165.495 262.187 168.93 262.765 171.752 261.473C173.759 260.554 175.72 257.935 176.015 255.713C176.117 254.965 176.037 254.206 176.162 253.457C176.332 252.471 176.887 251.542 177.692 250.929C178.554 250.272 179.71 249.909 180.209 248.945C180.866 247.687 180.481 245.918 181.818 245.114C183.201 244.286 184.935 244.785 186.307 243.526C187.35 242.574 187.917 241.1 189.163 240.443C191.351 239.298 193.981 241.338 196.407 240.896C197.518 240.692 198.47 239.978 199.218 239.139C200.85 237.302 201.644 234.514 200.533 232.314C199.853 230.965 198.56 230.013 197.234 229.276C196.01 228.596 194.672 228.052 193.267 227.95C190.32 227.757 188.2 229.843 185.105 229.378C182.283 228.959 179.358 229.843 176.967 231.407C174.949 232.722 173.487 234.457 171.923 236.237C170.404 237.971 168.794 237.11 166.867 238.175C165.541 238.901 164.509 240.216 164.237 241.713C164.045 242.755 164.181 243.844 164.056 244.898C164.033 245.125 163.988 245.352 163.863 245.544C163.693 245.794 163.398 245.941 163.126 246.077C160.213 247.619 158.162 252.664 158.955 255.838L158.932 255.861Z" fill="black"/>
<path d="M171.391 254.364C172.921 258.672 181.048 257.641 179.609 251.315C178.079 247.007 169.951 248.038 171.391 254.364Z" fill="#D6906F"/>
<path d="M178.032 251.757C177.42 250.804 176.31 250.192 175.176 250.204C174.042 250.215 172.943 250.85 172.354 251.813" stroke="#131834" stroke-width="0.5" stroke-miterlimit="10"/>
<path d="M175.788 250.328C175.006 250.634 174.394 251.337 174.201 252.165C174.008 252.981 174.258 253.888 174.825 254.512" stroke="#131834" stroke-width="0.5" stroke-miterlimit="10"/>
<path d="M187.531 255.01C187.928 256.382 189.164 257.471 190.58 257.709C191.997 257.935 193.505 257.301 194.332 256.122" fill="white"/>
<mask id="mask2_21_4" style="mask-type:luminance" maskUnits="userSpaceOnUse" x="166" y="254" width="29" height="28">
<path d="M178.633 281.403C181.886 282.105 185.57 281.913 188.562 280.575C191.306 279.351 193.618 277.027 194.502 274.147C192.938 274.204 191.487 273.161 190.693 271.812C189.9 270.463 189.662 268.864 189.583 267.3C189.526 266.053 189.571 264.805 189.707 263.558C189.809 262.663 190.625 260.702 190.41 259.897C190.013 258.446 186.454 257.391 185.06 256.836C182.861 255.974 180.571 255.317 178.247 254.897C177.658 254.795 171.866 254.398 171.832 254.308C173.248 258.899 173.509 263.842 172.602 268.569C172.432 269.454 172.217 270.361 171.696 271.097C170.562 272.741 168.363 273.195 166.391 273.501C168.952 277.14 172.886 279.668 177.125 280.994C177.613 281.142 178.1 281.278 178.61 281.391L178.633 281.403Z" fill="white"/>
</mask>
<g mask="url(#mask2_21_4)">
<path d="M192.768 262.277C189.911 264.103 186.171 264.465 183.02 263.218C183.224 264.012 183.972 264.533 184.697 264.907C187.508 266.347 190.864 266.687 193.901 265.848" fill="black"/>
</g>
<path d="M316.674 510.485V585.886" stroke="black" stroke-width="4" stroke-miterlimit="10"/>
<path d="M281.943 584.197H349.717" stroke="black" stroke-width="4" stroke-miterlimit="10"/>
<path d="M352.255 337.066C352.187 337.248 352.119 337.44 352.074 337.633C350.419 343.574 360.609 346.986 364.644 348.947C365.982 349.593 367.433 350.217 368.895 350.024C370.743 349.786 372.182 348.346 373.463 346.986C377.669 342.531 381.863 338.075 386.068 333.631C394.74 324.437 403.536 315.084 409.305 303.838C410.926 300.686 412.842 294.406 410.904 291.028C406.868 283.987 404.352 288.59 400.362 291.424C384.719 302.5 370.845 318.576 356.664 331.534C354.907 333.144 353.071 334.867 352.255 337.078V337.066Z" fill="#D6906F"/>
<path d="M340.409 339.435C333.665 341.975 326.92 344.503 320.176 347.042C316.447 348.448 312.604 349.911 309.725 352.665C303.944 358.187 303.513 371.598 311.164 375.895C320.153 380.939 338.21 375.872 346.973 372.426C352.992 370.067 358.705 366.757 363.443 362.336C365.619 360.295 367.965 357.971 369.926 355.828C371.151 354.491 373.259 348.119 373.724 347.813C374.676 347.178 375.968 347.405 376.988 346.906C377.634 346.6 378.609 345.909 379.142 345.421C379.731 344.888 380.117 344.061 379.89 343.301C379.845 343.165 379.788 343.018 379.822 342.882C379.913 342.553 380.389 342.598 380.729 342.621C382.033 342.734 383.166 341.521 383.415 340.229C384.107 336.635 381.228 331.602 379.346 328.711C377.6 326.013 375.549 322.94 372.998 320.911C371.502 319.721 370.176 317.952 368.113 317.816C366.571 317.714 364.996 318.485 364.134 319.766C363.193 321.149 363.114 322.918 362.615 324.516C362.468 324.97 362.241 325.468 361.788 325.627C361.47 325.729 361.119 325.639 360.79 325.605C359.407 325.434 358.773 326.273 357.662 326.784C356.369 327.373 355.066 327.396 354.216 328.733C353.649 329.629 353.581 330.74 353.241 331.749C351.529 336.828 344.66 337.848 340.398 339.447L340.409 339.435Z" fill="#F2B430"/>
<path d="M373.101 408.601H466.617C467.093 408.601 467.501 408.273 467.591 407.808L478.689 353.879C478.813 353.255 478.349 352.677 477.714 352.677H384.198C383.722 352.677 383.314 353.006 383.223 353.471L372.126 407.4C372.001 408.023 372.466 408.601 373.101 408.601Z" fill="black"/>
<path d="M377.068 407.388H462.785C463.193 407.388 463.556 407.094 463.635 406.697L473.814 357.937C473.928 357.393 473.508 356.883 472.964 356.883H387.247C386.839 356.883 386.476 357.178 386.397 357.574L376.218 406.323C376.104 406.867 376.524 407.377 377.068 407.377V407.388Z" fill="#5B7799"/>
<path d="M469.28 412.842H351.654C350.384 412.842 349.364 411.844 349.364 410.619C349.364 409.395 350.384 408.397 351.654 408.397H469.28C470.538 408.397 471.57 409.395 471.57 410.619C471.57 411.844 470.55 412.842 469.28 412.842Z" fill="black"/>
<path d="M416.549 408.261H396.859V410.041H416.549V408.261Z" fill="black"/>
<path opacity="0.65" d="M460.517 386.948C460.166 386.03 459.667 385.168 459.01 384.408C458.024 383.275 456.663 382.39 455.133 382.288C455.473 381.96 455.36 380.973 455.484 380.407C456.142 377.561 454.884 374.375 452.458 372.754C450.214 371.246 447.414 371.28 445.011 372.369C443.378 373.106 443.276 370.158 442.812 369.115C441.984 367.267 440.851 365.521 439.23 364.286C436.872 362.494 433.709 361.973 430.796 362.472C427.883 362.971 425.197 364.41 422.839 366.213C419.688 346.657 420.379 326.251 418.781 306.502C418.724 305.856 418.668 305.164 418.293 304.631C417.874 304.019 417.16 303.702 416.468 303.418C414.609 302.636 412.751 301.865 410.88 301.083C410.291 300.834 409.645 300.595 409.044 300.8C408.137 301.117 407.876 302.251 407.752 303.214C406.618 312.091 404.215 321.285 404.215 330.219C404.26 334.254 403.535 338.46 403.172 342.485C402.447 350.568 401.631 358.64 400.735 366.712C400.871 365.442 397.55 363.662 396.643 363.322C394.727 362.585 392.506 362.846 390.681 363.753C387.518 365.34 385.126 368.503 384.662 372.04C384.038 371.428 383.063 371.371 382.191 371.45C377.906 371.802 373.882 374.466 371.864 378.264C369.779 382.209 369.336 387.832 370.697 392.061C371.626 394.952 373.576 397.559 376.251 398.988C378.711 400.291 381.658 400.529 384.367 399.872C385.58 399.577 386.747 399.124 387.847 398.534C388.799 398.024 389.74 396.958 390.703 396.596C391.973 396.108 391.962 397.06 392.8 398.171C393.424 399.01 394.138 399.781 394.92 400.484C395.68 401.176 396.496 401.81 397.357 402.366C398.899 403.375 400.588 404.169 402.333 404.735C404.034 405.28 405.859 405.79 407.627 405.948C411.572 406.311 415.528 405.302 419.166 403.817C420.141 403.42 421.116 402.955 421.989 402.343C422.884 401.697 423.338 400.904 424.006 400.087C425.457 401.142 426.67 402.094 428.473 402.536C430.082 402.933 431.794 402.955 433.403 402.536C434.548 402.241 435.761 401.584 436.645 400.801C436.906 400.575 439.026 398.024 438.901 397.877C444.501 404.531 456.323 402.479 460.075 394.918C461.288 392.469 461.469 389.487 460.517 386.959V386.948Z" fill="#F9FBFC"/>
<path d="M447.347 384.386C449.161 382.221 449.682 378.978 448.424 376.394C447.302 374.092 445.069 372.516 442.507 372.267C441.43 372.165 440.262 372.267 439.254 372.698C439.038 371.859 438.687 371.054 438.199 370.317C436.544 367.823 433.518 366.27 430.593 366.009C427.692 365.76 424.846 366.95 422.976 369.183C422.115 370.215 421.321 371.496 421.072 372.834C421.004 373.219 420.992 373.559 421.015 373.888C420.63 373.741 420.233 373.627 419.78 373.593C418.476 373.491 417.138 373.888 416.107 374.693C416.232 372.233 415.994 369.897 415.994 367.449C416.005 363.095 416.073 358.731 416.096 354.377C416.198 337.111 415.914 319.948 414.917 302.704C414.883 302.092 414.826 301.435 414.452 300.958C414.169 300.584 413.727 300.369 413.296 300.165C412.015 299.553 410.745 298.94 409.464 298.328C409.192 298.204 408.875 298.067 408.603 298.181C408.252 298.328 408.161 298.77 408.116 299.156C406.971 309.314 406.404 319.573 405.078 329.629C403.717 339.957 401.961 350.205 400.34 360.499C397.664 357.019 391.135 357.926 387.848 360.873C384.776 363.628 384.765 368.197 386.42 372.04C384.992 373.004 383.019 373.809 381.999 374.942C380.31 376.824 379.109 379.148 378.678 381.642C377.737 387.05 380.423 392.9 385.139 395.711C389.854 398.523 396.282 398.092 400.589 394.691C401.36 399.895 406.166 404.203 411.414 404.407C414.089 404.509 416.73 403.534 418.816 401.89C419.712 401.187 421.684 399.283 422.466 397.582C425.833 402.593 435.683 402.786 440.784 401.142C448.095 398.784 450.453 390.655 446.939 384.794C447.075 384.658 447.211 384.533 447.336 384.375L447.347 384.386Z" fill="#F9FBFC"/>
<path opacity="0.66" d="M365.291 385.474C365.495 385.622 365.733 385.735 365.982 385.814C365.676 386.086 365.574 386.517 365.619 386.925C365.755 388.32 367.501 389.295 368.782 389.385C371.003 389.544 372.477 386.744 371.049 384.987C370.425 384.216 369.269 383.921 368.351 384.295C369.02 384.023 367.603 382.561 367.297 382.459C366.458 382.175 365.449 382.889 365.007 383.547C364.803 383.853 364.656 384.227 364.712 384.59C364.758 384.953 364.996 385.259 365.302 385.474H365.291Z" fill="#F9FBFC"/>
<path d="M452.889 365.193C452.889 366.395 451.914 367.381 450.701 367.381C449.488 367.381 448.514 366.406 448.514 365.193C448.514 363.98 449.488 363.005 450.701 363.005C451.914 363.005 452.889 363.98 452.889 365.193Z" stroke="#131834" stroke-width="0.5" stroke-miterlimit="10"/>
<path d="M456.675 370.136C456.675 370.702 456.222 371.156 455.655 371.156C455.088 371.156 454.635 370.702 454.635 370.136C454.635 369.569 455.088 369.115 455.655 369.115C456.222 369.115 456.675 369.569 456.675 370.136Z" stroke="#131834" stroke-width="0.5" stroke-miterlimit="10"/>
<path d="M424.076 385.134C424.076 387.22 422.387 388.921 420.29 388.921C418.193 388.921 416.504 387.22 416.504 385.134C416.504 383.048 418.193 381.348 420.29 381.348C422.387 381.348 424.076 383.048 424.076 385.134Z" stroke="#131834" stroke-width="0.5" stroke-miterlimit="10"/>
<path d="M458.138 390.519C458.138 391.086 457.685 391.539 457.118 391.539C456.551 391.539 456.098 391.086 456.098 390.519C456.098 389.952 456.551 389.499 457.118 389.499C457.685 389.499 458.138 389.952 458.138 390.519Z" stroke="#131834" stroke-width="0.5" stroke-miterlimit="10"/>
<path d="M386.51 391.834C383.778 391.834 381.557 389.623 381.557 386.88C381.557 384.136 383.767 381.926 386.51 381.926" stroke="#131834" stroke-width="0.5" stroke-miterlimit="10"/>
<path d="M392.619 395.031C393.101 395.031 393.492 394.64 393.492 394.158C393.492 393.676 393.101 393.285 392.619 393.285C392.137 393.285 391.746 393.676 391.746 394.158C391.746 394.64 392.137 395.031 392.619 395.031Z" stroke="#131834" stroke-width="0.5" stroke-miterlimit="10"/>
<path d="M435.422 370.283C435.422 371.564 434.379 372.607 433.098 372.607C431.817 372.607 430.774 371.564 430.774 370.283C430.774 369.002 431.817 367.959 433.098 367.959C434.379 367.959 435.422 369.002 435.422 370.283Z" stroke="#131834" stroke-width="0.5" stroke-miterlimit="10"/>
<path d="M416.503 392.118C416.503 394.374 414.678 396.199 412.423 396.199C410.167 396.199 408.342 394.374 408.342 392.118" stroke="#131834" stroke-width="0.5" stroke-miterlimit="10"/>
<path d="M388.245 364.161C387.247 365.794 387.009 367.88 387.632 369.693C388.245 371.507 389.707 373.027 391.498 373.707" stroke="#131834" stroke-width="0.5" stroke-miterlimit="10"/>
<path d="M414.168 327.192V375.815" stroke="#131834" stroke-width="0.5" stroke-miterlimit="10"/>
<path d="M409.804 319.902L408.059 350.477" stroke="#131834" stroke-width="0.5" stroke-miterlimit="10"/>
<path d="M608.103 560.469L588.776 415.925" stroke="black" stroke-miterlimit="10"/>
<path d="M351.155 414.984L330.23 561.319" stroke="black" stroke-miterlimit="10"/>
<path d="M605.134 412.66H327.25V420.267H605.134V412.66Z" fill="#ADACA5"/>
<path d="M335.751 519.974C331.432 520.36 327.159 520.575 322.999 520.541C308.127 520.428 292.666 514.929 279.438 508.331C241.759 489.546 243.437 450.23 241.895 413.533C241.408 401.879 240.932 390.111 243.21 378.65C247.574 356.724 262.151 342.122 285.094 341.578C287.701 341.521 290.433 341.692 292.677 343.007C295.024 344.378 296.543 346.827 297.585 349.344C302.868 362.03 299.388 377.176 301.609 390.53C304.114 405.586 308.83 420.868 317.331 433.667C322.16 440.923 328.134 446.455 335.139 451.545C342.564 456.953 353.06 456.227 361.924 457.157C367.955 457.792 374.302 459.084 379.483 462.406C392.45 470.727 404.806 493.854 389.809 505.962C385.388 509.533 379.8 511.256 374.314 512.719C362.23 515.927 348.787 518.795 335.763 519.974H335.751Z" fill="#447CA8"/>
<path d="M568.01 381.699C569.427 381.144 570.878 380.667 572.34 380.248C573.089 370.487 568.895 359.717 559.588 364.138C559.77 364.921 559.996 365.703 560.178 366.485C560.382 367.381 560.552 368.288 560.529 369.206C560.529 369.693 560.461 370.181 560.336 370.657C560.189 371.235 560.053 371.677 559.452 371.87C559.237 371.938 558.919 371.859 558.772 371.666C557.435 369.988 557.061 367.902 556.811 365.816C556.29 366.202 555.757 366.61 555.202 367.075C546.167 374.772 539.706 385.1 535.478 396.437C532.758 403.738 530.967 411.368 529.992 419.099C529.221 425.187 527.566 433.973 529.368 439.982C529.799 441.421 530.876 442.77 532.338 443.088C533.812 443.405 535.546 442.306 535.546 440.809C535.886 444.709 540.239 444.052 542.143 441.977C556.902 425.935 567.217 405.835 571.683 384.499C568.26 386.052 564.757 387.356 560.948 387.764C560.37 387.821 559.86 387.141 560.268 386.642C562.241 384.261 565.177 382.799 568.01 381.688V381.699ZM545.045 406.323C542.415 410.461 540.386 403.262 539.978 401.652C539.684 400.507 538.505 397.673 539.479 396.709C540.001 396.199 540.817 396.097 541.509 396.312C542.2 396.528 542.778 397.004 543.265 397.548C544.66 399.124 545.317 401.232 545.51 403.318C545.612 404.35 545.589 405.45 545.034 406.323H545.045Z" fill="#1C6652"/>
<path d="M528.825 450.4C525.175 439.744 518.645 430.357 512.207 421.129C507.333 414.145 500.418 408.171 491.259 410.381C488.199 411.13 485.467 412.807 483.801 415.517C480.752 420.46 482.146 426.967 484.73 432.171C489.321 441.399 498.435 450.071 506.403 456.454C506.562 456.579 506.732 456.681 506.891 456.806C506.868 456.783 509.056 456.08 509.203 456.057C510.348 455.842 511.516 455.695 512.683 455.638C513.182 455.615 513.715 455.615 514.111 455.899C515.732 457.055 512.388 458.155 511.697 458.359C511.448 458.427 510.031 458.96 509.781 458.801C512.048 460.218 514.417 461.51 516.616 463.029C517.773 463.834 518.963 464.639 520.323 465.025C521.683 465.399 523.259 465.274 524.324 464.345C526.682 462.259 523.123 460.445 526.739 459.402C528.394 458.926 529.459 457.202 529.663 455.49C529.867 453.779 529.369 452.055 528.813 450.423L528.825 450.4ZM489.956 421.083C489.332 420.766 488.732 420.38 488.142 419.995C487.904 419.836 487.644 419.644 487.61 419.36C487.587 419.111 487.768 418.873 487.995 418.771C488.222 418.657 488.482 418.646 488.732 418.646C490.353 418.646 492.098 419.111 493.334 420.176C493.629 420.426 493.64 420.936 493.492 421.253C493.334 421.605 492.971 421.843 492.574 421.832C491.634 421.809 490.772 421.514 489.945 421.095L489.956 421.083ZM509.498 443.496C509.26 443.768 508.806 443.904 508.444 443.802C508.432 443.802 508.421 443.814 508.41 443.814C506.437 444.154 504.363 443.621 502.481 443.054C500.509 442.453 498.503 441.705 496.746 440.605C495.998 440.14 496.077 439.154 496.87 438.791C498.899 437.884 501.246 438.02 503.343 438.621C505.599 439.256 507.741 440.424 509.385 442.102C509.759 442.487 509.861 443.065 509.487 443.496H509.498ZM513.953 432.386C513.828 433.985 512.819 435.526 511.969 436.955C511.572 436.966 511.368 436.501 511.289 436.105C511.073 434.891 511.187 433.633 511.584 432.465C511.663 432.227 513.159 429.654 513.261 429.824C513.828 430.686 514.009 431.547 513.941 432.375L513.953 432.386ZM527.056 453.756C526.728 454.595 526.263 455.366 525.685 456.057C525.628 456.125 525.56 456.193 525.469 456.193C525.401 456.193 525.345 456.148 525.299 456.103C524.812 455.683 524.551 455.037 524.528 454.391C524.506 453.745 524.687 453.11 524.937 452.52C525.277 451.738 526.988 450.31 527.419 451.851C527.51 452.169 527.442 452.498 527.362 452.815C527.283 453.121 527.181 453.439 527.056 453.733V453.756Z" fill="#1C6652"/>
<path d="M511.437 432.375C511.437 432.375 511.425 432.454 511.414 432.499C511.414 432.533 511.403 432.567 511.391 432.624C511.391 432.579 511.403 432.533 511.414 432.499C511.414 432.545 511.391 432.601 511.38 432.647C511.403 432.556 511.414 432.465 511.437 432.375Z" fill="#E3AE3D"/>
<path d="M587.655 426.185C586.805 426.513 585.921 426.865 584.98 426.876C584.832 426.876 584.674 426.876 584.572 426.763C584.481 426.672 584.458 426.547 584.447 426.423C584.379 425.266 585.354 424.269 586.419 423.827C587.281 423.464 589.922 423.554 590.477 422.931C591.226 422.092 590.183 419.961 589.446 419.383C588.188 418.374 586.374 418.714 584.821 419.144C581.931 419.961 579.108 420.97 576.376 422.171C576.286 422.217 577.102 429.461 576.784 430.334C576.354 431.536 574.064 433.1 573.021 431.536C572.749 431.139 572.76 430.629 572.772 430.141C572.84 428.203 573.055 426.173 572.919 424.246C565.268 427.579 558.58 432.783 552.958 439.052C551.586 440.582 548.662 443.11 548.696 445.253C548.718 446.546 549.67 448.099 549.863 449.448C550.079 450.956 550.056 452.497 549.818 453.994C549.761 454.334 549.648 454.742 549.319 454.855C548.786 455.037 548.412 454.323 548.31 453.778C547.879 451.522 547.766 449.244 547.517 446.976C542.643 451.862 540.035 459.855 538.483 466.419C538.108 467.995 535.513 474.593 537.168 475.613C537.836 476.033 548.412 471.486 550.101 471.067C559.056 468.856 567.648 464.05 573.837 456.488C577.635 451.851 581.16 446.965 584.062 441.716C586.408 437.476 590.432 430.583 590.035 425.606C589.231 425.595 588.437 425.89 587.621 426.207L587.655 426.185ZM567.036 436.921C566.877 439.426 565.279 442.578 564.418 443.791C564.134 444.187 563.545 444.584 563.227 444.21C563.125 444.085 563.103 443.927 563.091 443.768C563.023 443.054 563.023 441.784 563.171 441.444C562.967 439.131 562.547 436.24 564.35 434.415C564.769 433.984 565.46 433.667 565.959 433.996C566.855 434.597 567.127 435.685 567.036 436.921ZM581.772 440.152C579.323 441.546 576.648 443.11 573.815 443.439C572.862 443.553 570.312 443.666 569.87 442.43C569.348 440.956 571.854 439.539 572.885 439.052C575.572 437.782 578.553 437.125 581.523 437.147C582.191 437.147 582.985 437.272 583.28 437.862C583.699 438.7 582.792 439.562 581.976 440.027C581.908 440.072 581.84 440.106 581.761 440.152H581.772Z" fill="#1C6652"/>
<path d="M565.268 447.351C559.249 452.69 553.23 458.03 547.2 463.369C544.003 466.204 540.761 469.095 538.483 472.87C534.787 478.992 534.028 486.678 533.382 494.036" stroke="#1C0C03" stroke-width="0.5" stroke-miterlimit="10"/>
<path d="M513.919 441.047C521.695 453.121 529.165 466.34 530.151 481.18C530.718 489.694 529.086 498.378 530.627 506.744" stroke="#1C0C03" stroke-width="0.5" stroke-miterlimit="10"/>
<path d="M555.338 388.184C549.67 400.858 535.603 436.615 533.449 450.582C532.316 457.917 532.202 465.399 532.1 472.836C531.964 482.098 531.828 491.349 531.692 500.611" stroke="#1C0C03" stroke-width="0.5" stroke-miterlimit="10"/>
<path d="M516.525 521.799C516.525 521.799 550.078 522.003 550.1 521.799L553.637 487.233H511.413C511.413 487.233 516.514 521.731 516.525 521.799Z" fill="#447CA8"/>
<path d="M526.932 548.135C530.027 544.212 533.393 540.278 537.417 537.263C535.966 535.97 534.447 534.678 533.087 533.34C524.767 525.144 517.172 516.698 508.24 509.329C508.093 509.612 506.483 513.353 506.336 513.637C502.697 520.892 499.909 525.053 496.667 532.49C505.86 539.893 515.903 545.414 525.368 550.198C525.889 549.507 526.411 548.815 526.943 548.135H526.932Z" fill="#DE9983"/>
<path d="M563.885 515.598C563.885 515.598 563.885 515.587 563.885 515.576C563.726 513.841 562.389 512.345 560.677 511.993C558.206 511.472 556.177 513.206 554.442 514.827C550.974 516.902 547.823 521.006 544.853 523.772C542.336 526.119 539.627 530.268 536.578 531.776C535.433 532.343 534.016 532.524 532.894 531.923C532.509 531.719 520.346 547.874 521.514 549.133C525.186 553.089 532.554 556.354 536.601 557.896C537.825 558.361 539.197 557.907 539.911 556.808C544.49 549.688 548.911 542.466 553.23 535.188C555.587 531.22 557.922 527.241 560.212 523.239C561.402 521.153 564.123 518.115 563.907 515.598H563.885Z" fill="black"/>
<path d="M497.12 552.851C502.924 547.307 506.608 542.16 509.703 534.916C513.285 526.538 515.144 517.072 520.482 509.873C521.321 508.751 520.913 507.141 519.621 506.597C510.462 502.742 484.232 486.145 480.934 484.229C467.218 476.282 453.468 468.596 439.118 461.975C426.899 456.341 416.685 449.108 403.162 445.9C389.345 442.623 375.04 441.852 360.882 441.886C351.553 441.909 342.224 442.204 332.918 442.782C324.348 443.315 303.299 443.462 302.517 455.661C302.313 458.812 305.067 471.838 306.722 473.981C308.354 476.101 316.062 477.983 318.477 479.275C322.376 481.372 325.958 482.778 330.333 483.776C338.381 485.59 346.611 485.941 354.772 486.995C369.61 488.9 384.607 490.408 398.912 495.011C416.969 500.826 433.53 511.97 449.07 522.57C463.931 532.705 482.713 544.382 496.168 555.186C496.826 554.631 496.486 553.452 497.12 552.851Z" fill="#E8654B"/>
<path d="M302.777 316.444C302.8 316.172 302.834 315.9 302.856 315.64C303.446 309.416 302.89 303.781 305.86 298.181C308.637 292.932 316.753 285.382 323.362 286.323C329.188 287.15 332.623 296.424 334.391 301.083C336.182 305.788 337.735 312.556 335.717 317.453C333.926 321.795 326.309 321.319 326.162 326.342C325.924 334.255 325.686 342.179 325.448 350.092C325.414 351.385 325.357 352.722 324.824 353.901C322.489 358.992 306.393 355.602 302.607 353.176C295.942 348.913 298.13 342.338 299.648 335.672C301.088 329.334 302.142 322.906 302.788 316.444H302.777Z" fill="#D6906F"/>
<path d="M332.646 434.699C333.994 431.264 335.4 427.885 336.896 424.484C338.619 420.562 340.694 416.855 341.34 412.649C342.19 407.162 340.399 401.675 341.238 396.222C341.612 393.784 342.564 391.483 343.051 389.068C344.128 383.74 342.893 378.139 340.501 373.265C337.656 367.471 331.229 362.88 329.959 356.713C329.098 352.507 333.473 352.949 335.037 350.41C337.35 346.668 334.641 342.236 330.413 341.034C317.876 337.486 303.423 333.801 292.224 342.508C286.398 347.031 282.34 353.493 279.37 360.25C272.999 374.761 272.591 391.993 265.133 405.892C258.06 419.088 258.513 436.909 259.397 451.704C259.658 455.967 260.089 460.286 261.63 464.265C263.421 468.868 266.606 472.768 269.735 476.577C272.104 479.468 274.586 482.449 277.953 484.082C281.229 485.669 285.037 485.828 288.631 485.238C297.28 483.81 304.455 478.413 310.474 472.326C316.504 466.238 323.974 460.694 328.882 453.676C331.172 450.4 333.042 446.852 335.117 443.428C335.241 443.213 335.377 442.952 335.264 442.736C335.151 442.498 334.822 442.453 334.55 442.442C333.802 442.419 333.065 442.396 332.317 442.374C332.748 441.864 332.793 441.059 332.419 440.492C332.045 439.936 331.285 439.664 330.651 439.868C331.297 438.122 331.954 436.399 332.623 434.676L332.646 434.699Z" fill="#F2B430"/>
<path d="M466.731 568.915C464.157 557.533 462.979 546.094 461.947 534.565C461.641 534.667 461.335 534.746 461.029 534.848C453.31 537.354 445.726 540.199 438.154 543.113C441.77 554.71 445.817 566.319 449.422 577.282C449.875 578.676 451.156 580.082 451.632 581.476C452.437 583.868 450.351 584.832 452.55 586.068C454.318 587.065 456.483 586.963 458.501 586.714C468.555 585.501 468.669 577.384 466.753 568.904L466.731 568.915Z" fill="#DE9983"/>
<path d="M500.055 577.202C500.123 577.123 500.18 577.044 500.237 576.964C501.223 575.558 501.246 573.609 500.248 572.214C498.854 570.241 496.269 570.037 493.968 569.935C490.058 568.926 484.923 569.561 480.865 569.403C477.43 569.267 472.579 570.253 469.348 569.142C468.135 568.722 467.024 567.838 466.65 566.614C466.526 566.194 447.12 571.296 447.414 574.357C448.015 580.603 449.545 584.401 451.064 588.131C451.404 588.947 452.266 589.412 453.139 589.231C461.663 587.439 470.142 585.467 478.598 583.369C483.075 582.258 487.553 581.125 492.007 579.946C494.331 579.322 498.401 579.13 500.044 577.202H500.055Z" fill="black"/>
<path d="M421.855 564.573C425.697 564.335 429.517 563.791 433.303 562.997C447.96 559.902 461.641 553.508 475.062 546.763C474.326 544.779 473.589 542.784 472.841 540.8C459.488 505.338 449.127 471.01 423.974 441.739C419.474 436.501 414.033 431.161 407.153 430.674C404.036 430.447 400.952 431.275 397.949 432.114C374.598 438.689 352.347 450.559 328.871 455.604C322.524 456.964 314.181 459.515 308.083 461.737C304.104 463.188 301.621 466.158 297.393 467.122C291.42 468.482 284.471 468.051 278.441 467.314C276.298 467.054 261.438 465.217 261.019 462.95C263.467 476.112 269.633 489.093 280.413 497.028C296.498 508.887 319.078 506.574 337.781 504.409C343.165 503.785 400.975 493.571 400.125 489.988C404.614 509.011 410.395 528.102 415.983 546.729C417.785 552.726 419.667 558.712 421.866 564.573H421.855Z" fill="#E8654B"/>
<path d="M324.507 275.451C322.149 275.791 319.95 276.902 317.898 278.126C310.836 282.344 304.738 288.171 300.192 295.029C298.798 297.127 297.506 299.496 297.665 302.013C297.835 304.654 298.991 307.693 299.512 310.277C299.92 312.284 301.065 314.438 302.074 316.195C303.922 319.415 307.005 322.793 311.063 321.115C313.693 320.027 315.11 317.816 316.912 315.787C318.408 314.109 320.063 312.794 321.038 310.674C322.863 306.718 322.081 298.816 326.139 296.344C327.352 295.608 328.837 295.415 330.083 294.746C331.33 294.077 332.373 292.524 331.704 291.266C331.489 290.846 331.092 290.438 331.217 289.996C331.285 289.769 331.466 289.61 331.636 289.452C332.781 288.386 334.584 285.801 334.073 284.078C333.722 282.888 330.764 281.709 329.766 282.842C331.217 281.21 332.736 279.498 331.319 277.537C330.038 275.768 327.114 275.224 325.096 275.394C324.892 275.417 324.688 275.439 324.495 275.462L324.507 275.451Z" fill="black"/>
<path d="M331.773 439.573C330.945 441.297 329.302 442.453 327.658 443.428C325.323 444.822 322.852 445.99 320.29 446.92" stroke="#131834" stroke-width="0.5" stroke-miterlimit="10"/>
<path d="M326.513 447.101C323.373 449.017 319.791 450.219 316.13 450.57" stroke="#131834" stroke-width="0.5" stroke-miterlimit="10"/>
<path d="M435.99 329.561C435.99 322.306 430.107 316.422 422.853 316.422H409.874C402.619 316.422 396.736 322.306 396.736 329.561H435.99Z" fill="#E8654B"/>
<path d="M435.071 318.462C441.272 306.536 445.16 289.452 445.16 270.462C445.16 234.423 414.668 205.208 414.668 205.208C414.668 205.208 386.409 234.423 386.409 270.462C386.409 289.452 392.201 306.536 398.402 318.462H435.071Z" fill="white"/>
<mask id="mask3_21_4" style="mask-type:luminance" maskUnits="userSpaceOnUse" x="386" y="205" width="60" height="114">
<path d="M435.071 318.462C441.272 306.536 445.16 289.452 445.16 270.462C445.16 234.423 414.668 205.208 414.668 205.208C414.668 205.208 386.409 234.423 386.409 270.462C386.409 289.452 392.201 306.536 398.402 318.462H435.071Z" fill="white"/>
</mask>
<g mask="url(#mask3_21_4)">
<path d="M423.124 214.198C418.295 208.496 414.668 205.197 414.668 205.197C414.668 205.197 411.29 208.484 406.79 214.198H423.124Z" fill="#E8654B"/>
</g>
<path d="M432.555 257.198C432.408 247.913 424.519 240.579 415.144 241.225C407.232 241.78 400.737 248.163 400.091 256.076C399.627 261.767 402.086 266.891 406.11 270.122C408.581 272.106 410.259 274.906 410.633 278.047L411.687 286.799L421.81 286.64L422.592 277.854C422.875 274.714 424.428 271.868 426.831 269.827C430.402 266.789 432.635 262.243 432.555 257.198Z" fill="#F2B430"/>
<path d="M414.192 281.142C413.308 277.185 412.412 273.24 411.528 269.283C410.701 265.622 409.012 261.813 408.649 258.128C408.49 256.575 410.395 256.507 411.381 257.232C411.744 257.493 412.038 257.901 412.004 258.343C411.97 258.786 411.494 259.194 411.086 259.024C410.712 258.876 410.599 258.4 410.644 258.003C410.78 256.938 411.891 256.11 412.956 256.269C414.011 256.428 414.827 257.55 414.645 258.604C414.555 259.114 413.988 259.647 413.602 259.318C413.489 259.228 413.432 259.092 413.387 258.944C413.092 257.958 413.716 256.813 414.679 256.428C415.643 256.042 416.81 256.382 417.502 257.153C417.774 257.459 417.989 257.845 417.978 258.253C417.978 258.661 417.683 259.08 417.286 259.148C416.765 259.228 416.3 258.684 416.312 258.162C416.323 257.641 416.686 257.176 417.094 256.847C417.899 256.212 419.066 255.951 419.973 256.428C420.88 256.904 421.31 258.23 420.676 259.035C420.517 259.239 420.29 259.409 420.03 259.432C419.338 259.5 418.975 258.57 419.134 257.901C419.395 256.813 420.517 256.008 421.628 256.099C424.836 256.36 423.249 260.101 422.92 261.96C422.467 264.556 422.013 267.152 421.56 269.748C420.925 273.399 420.29 277.061 419.656 280.711" stroke="#222540" stroke-width="0.5" stroke-miterlimit="10"/>
<path d="M416.833 288.034C414.623 288.159 411.8 288.375 410.791 286.13C409.987 284.327 410.021 281.765 410.259 279.838C410.259 279.827 421.832 279.679 423.022 279.623C422.852 279.623 423.022 283.908 422.965 284.316C422.739 285.654 421.991 286.787 420.744 287.366C419.622 287.887 418.363 287.955 417.128 288.023C417.026 288.023 416.924 288.023 416.822 288.046L416.833 288.034Z" fill="#1B2258"/>
<path d="M391.465 255.475C393.505 255.679 395.534 255.883 397.575 256.087" stroke="#F2B430" stroke-miterlimit="10"/>
<path d="M395.545 243.9C396.61 244.943 397.903 245.759 399.32 246.247" stroke="#F2B430" stroke-miterlimit="10"/>
<path d="M405.146 235.171C406.019 236.917 406.892 238.663 407.765 240.408" stroke="#F2B430" stroke-miterlimit="10"/>
<path d="M417.06 232.257C417.264 234.298 417.456 236.339 417.66 238.368" stroke="#F2B430" stroke-miterlimit="10"/>
<path d="M424.076 234.298C423.407 235.987 422.92 237.744 422.625 239.536" stroke="#F2B430" stroke-miterlimit="10"/>
<path d="M431.365 246.258C432.725 245.771 434.086 245.283 435.435 244.796" stroke="#F2B430" stroke-miterlimit="10"/>
<path d="M435.14 256.722C436.5 256.609 437.883 256.699 439.22 257.017" stroke="#F2B430" stroke-miterlimit="10"/>
<path d="M431.07 268.637C431.648 268.921 432.238 269.215 432.816 269.499" stroke="#F2B430" stroke-miterlimit="10"/>
<path d="M401.066 268.66C400.295 269.34 399.513 270.02 398.742 270.701" stroke="#F2B430" stroke-miterlimit="10"/>
<path d="M421.695 320.129C418.09 324.652 413.329 328.7 409.498 332.656C403.218 339.152 396.814 345.535 390.296 351.793C383.982 357.858 379.222 369.625 389.911 374.648C394.06 376.598 399.115 375.577 402.992 373.128C406.868 370.68 409.77 366.995 412.491 363.311C419.008 354.491 424.948 345.251 430.264 335.66C434.492 328.019 441.668 318.304 443.096 309.597C443.697 305.913 444.887 301.843 444.003 298.124C443.867 297.569 443.549 296.911 442.971 296.911C442.62 296.911 442.325 297.183 442.076 297.433C439.888 299.598 437.689 301.763 435.501 303.929C434.764 304.666 432.803 307.783 431.579 307.488C431.455 307.454 431.353 307.375 431.273 307.273C430.65 306.547 430.729 305.482 430.842 304.529C430.978 303.441 431.103 302.341 431.239 301.253C431.33 300.539 431.455 299.031 430.865 298.51C430.151 297.875 428.961 298.476 428.598 299.19C428.179 299.995 428.258 300.958 428.213 301.865C428.031 305.278 425.889 308.305 425.402 311.683C425.209 313.055 425.277 314.653 424.574 315.9C423.758 317.363 422.772 318.757 421.684 320.118L421.695 320.129Z" fill="#D6906F"/>
<path d="M444.32 300.664C442.937 303.441 441.566 306.423 439.469 308.724" stroke="#222540" stroke-width="0.5" stroke-miterlimit="10"/>
<path d="M443.834 305.89C443.267 307.84 441.476 311.468 440.014 312.873" stroke="#222540" stroke-width="0.5" stroke-miterlimit="10"/>
<path d="M443.628 297.478C443.719 298.237 443.322 298.952 442.937 299.62C441.429 302.217 439.91 304.824 437.927 307.069" stroke="#222540" stroke-width="0.5" stroke-miterlimit="10"/>
<path d="M306.415 369.093C301.563 362.891 298.764 355.625 300.181 348.29C300.532 346.476 301.201 344.707 302.323 343.245C303.899 341.215 306.256 339.923 308.693 339.141C319.144 335.774 329.652 340.479 338.698 345.127C348.038 349.922 358.75 351.226 368.85 353.641C372.103 354.411 375.265 352.836 378.485 352.96C381.228 353.062 383.427 350.194 386.17 350.806C386.431 350.863 386.714 350.954 386.963 350.84C387.201 350.727 387.303 350.455 387.394 350.206C387.859 349.038 388.788 347.927 390.035 347.745C391.021 347.598 392.03 348.074 392.744 348.777C393.98 349.967 395.329 351.759 396.1 353.289C399.874 360.771 401.325 369.41 400.203 377.72C399.863 380.293 398.503 383.456 395.918 383.286C394.887 383.218 393.787 382.606 392.903 383.139C392.506 383.377 392.268 383.808 391.985 384.171C390.273 386.336 386.249 385.78 385.184 383.241C372.454 393.104 347.857 388.853 333.359 386.2C324.325 384.556 313.295 377.89 306.415 369.093Z" fill="#F2B430"/>
<path d="M320.46 314.687C323.846 314.687 326.592 311.941 326.592 308.554C326.592 305.167 323.846 302.421 320.46 302.421C317.073 302.421 314.327 305.167 314.327 308.554C314.327 311.941 317.073 314.687 320.46 314.687Z" fill="#D6906F"/>
<path d="M321.537 304.473C320.142 304.099 318.555 304.495 317.49 305.47C316.424 306.445 315.903 307.987 316.152 309.416" stroke="#222540" stroke-width="0.5" stroke-miterlimit="10"/>
<path d="M317.66 305.368C317.309 307.182 318.125 309.166 319.644 310.221" stroke="#222540" stroke-width="0.5" stroke-miterlimit="10"/>
<path d="M331.115 310.368C332.351 311.57 334.402 311.83 335.887 310.957" stroke="#222540" stroke-miterlimit="10"/>
<mask id="mask4_21_4" style="mask-type:luminance" maskUnits="userSpaceOnUse" x="298" y="286" width="39" height="71">
<path d="M302.777 316.444C302.8 316.172 302.834 315.9 302.856 315.64C303.446 309.416 302.89 303.781 305.86 298.181C308.637 292.932 316.753 285.382 323.362 286.323C329.188 287.15 332.623 296.424 334.391 301.083C336.182 305.788 337.735 312.556 335.717 317.453C333.926 321.795 326.309 321.319 326.162 326.342C325.924 334.255 325.686 342.179 325.448 350.092C325.414 351.385 325.357 352.722 324.824 353.901C322.489 358.992 306.393 355.602 302.607 353.176C295.942 348.913 298.13 342.338 299.648 335.672C301.088 329.334 302.142 322.906 302.788 316.444H302.777Z" fill="white"/>
</mask>
<g mask="url(#mask4_21_4)">
<path d="M330.243 322.102C326.355 324.346 321.741 325.299 317.275 324.777C317.377 325.514 318.148 325.956 318.84 326.24C324.417 328.53 330.866 328.643 336.511 326.523" fill="black"/>
</g>
<path d="M393.267 381.79C393.675 378.491 393.493 375.124 392.745 371.882" stroke="#131834" stroke-width="0.5" stroke-miterlimit="10"/>
<path d="M385.434 382.787C385.887 380.781 386.159 378.74 386.227 376.688" stroke="#131834" stroke-width="0.5" stroke-miterlimit="10"/>
<path d="M394.57 374.058C394.049 370.657 393.096 367.324 391.759 364.161" stroke="#131834" stroke-width="0.5" stroke-miterlimit="10"/>
<path d="M401.643 495.328C401.212 493.514 399.773 492.097 399.138 490.34C398.447 488.424 398.753 486.315 399.081 484.297C399.546 481.44 400.011 478.583 400.464 475.727" stroke="#131834" stroke-width="0.5" stroke-miterlimit="10"/>
<path d="M392.812 493.038C394.388 492.687 395.918 492.131 397.358 491.406C397.766 491.201 398.004 491.179 398.469 491.167" stroke="#131834" stroke-width="0.5" stroke-miterlimit="10"/>
<mask id="mask5_21_4" style="mask-type:luminance" maskUnits="userSpaceOnUse" x="259" y="337" width="85" height="149">
<path d="M332.645 434.699C333.994 431.264 335.399 427.885 336.896 424.484C338.618 420.562 340.693 416.855 341.339 412.649C342.189 407.162 340.398 401.675 341.237 396.222C341.611 393.784 342.563 391.483 343.051 389.068C344.127 383.74 342.892 378.139 340.5 373.265C337.655 367.471 331.228 362.88 329.958 356.713C329.097 352.507 333.472 352.949 335.037 350.41C337.349 346.668 334.64 342.236 330.412 341.034C319.791 338.03 308.161 335.966 297.948 340.161C288.12 344.197 281.307 353.448 277 363.163C264.769 390.746 257.605 421.503 259.408 451.693C259.668 455.955 260.099 460.275 261.641 464.254C263.432 468.857 266.617 472.756 269.745 476.566C272.114 479.456 274.597 482.438 277.963 484.07C281.239 485.658 285.048 485.816 288.641 485.227C297.29 483.798 304.465 478.402 310.484 472.314C316.515 466.226 323.985 460.683 328.893 453.665C331.183 450.389 333.053 446.84 335.127 443.417C335.252 443.201 335.388 442.941 335.275 442.725C335.161 442.487 334.833 442.442 334.56 442.43C333.812 442.408 333.076 442.385 332.327 442.362C332.758 441.852 332.803 441.047 332.429 440.48C332.055 439.925 331.296 439.653 330.661 439.857C331.307 438.111 331.965 436.388 332.633 434.665L332.645 434.699Z" fill="white"/>
</mask>
<g mask="url(#mask5_21_4)">
<path d="M347.438 387.356C344.751 387.322 342.076 386.812 339.435 385.871C337.655 385.236 335.944 384.454 334.255 383.604C334.017 383.536 333.79 383.468 333.552 383.4C333.405 383.796 333.325 384.273 333.325 384.839C333.382 389.964 343.606 393.637 347.483 394.895C347.347 392.378 347.336 389.862 347.426 387.345L347.438 387.356Z" fill="black"/>
</g>
<path d="M372.614 353.606C358.706 354.581 344.979 349.673 332.771 342.961" stroke="#131834" stroke-width="0.5" stroke-miterlimit="10"/>
<path d="M471.74 538.249C466.82 524.985 461.72 511.778 456.426 498.65C451.733 487.007 444.456 472.575 437.813 461.907" stroke="#131834" stroke-width="0.5" stroke-miterlimit="10"/>
<path d="M328.542 455.252C331.115 455.388 333.269 453.404 335.717 452.611C336.907 452.225 338.166 452.112 339.401 451.931C342.734 451.443 345.987 450.378 348.979 448.802C355.565 445.333 362.967 445.627 369.485 442.396" stroke="#131834" stroke-width="0.5" stroke-miterlimit="10"/>
<path d="M242.654 437.42C255.747 430.448 270.868 426.242 285.944 427.194C301.02 428.146 316.844 433.996 324.937 445.888C342.79 472.122 335.694 506.699 326.943 519.691" stroke="black" stroke-width="3" stroke-miterlimit="10"/>
<path d="M379.925 342.054C379.165 340.83 378.406 339.606 377.646 338.381" stroke="#131834" stroke-width="0.5" stroke-miterlimit="10"/>
<path d="M363.546 325.378C365.53 326.636 367.105 328.518 367.978 330.695" stroke="#131834" stroke-width="0.5" stroke-miterlimit="10"/>
<path d="M360.02 326.886C361.516 327.906 363.023 328.926 364.52 329.958" stroke="#131834" stroke-width="0.5" stroke-miterlimit="10"/>
<path d="M422.999 185.114C427.328 180.784 427.328 173.764 422.999 169.434C418.67 165.104 411.651 165.104 407.321 169.434C402.992 173.764 402.992 180.784 407.321 185.114C411.651 189.444 418.67 189.444 422.999 185.114Z" fill="#F2B430"/>
<path d="M414.521 183.396C414.464 183.407 414.419 183.418 414.385 183.418H414.283C413.931 183.418 413.603 183.407 413.319 183.384C413.036 183.362 412.764 183.328 412.515 183.282C412.265 183.237 412.027 183.18 411.8 183.112C411.574 183.044 411.336 182.965 411.098 182.885C411.12 182.636 411.166 182.375 411.245 182.115C411.324 181.854 411.404 181.604 411.494 181.366C411.88 181.491 412.288 181.604 412.696 181.706C413.104 181.808 413.603 181.854 414.192 181.854C415.133 181.854 415.836 181.672 416.289 181.298C416.743 180.936 416.981 180.425 416.981 179.779C416.981 179.462 416.935 179.19 416.833 178.974C416.731 178.759 416.584 178.566 416.391 178.407C416.199 178.249 415.949 178.101 415.654 177.965C415.36 177.829 415.008 177.682 414.6 177.512L413.773 177.172C413.433 177.036 413.115 176.877 412.832 176.707C412.549 176.537 412.299 176.333 412.084 176.095C411.868 175.857 411.71 175.585 411.596 175.256C411.483 174.938 411.426 174.553 411.426 174.099C411.426 173.215 411.698 172.49 412.231 171.934C412.764 171.367 413.535 171.027 414.532 170.88V169.213C414.702 169.168 414.895 169.145 415.122 169.145C415.348 169.145 415.552 169.168 415.745 169.213V170.812C416.221 170.834 416.697 170.891 417.162 170.97C417.627 171.05 418.023 171.152 418.352 171.277C418.296 171.753 418.171 172.229 417.978 172.705C417.672 172.592 417.309 172.49 416.913 172.399C416.516 172.308 416.051 172.274 415.518 172.274C414.793 172.274 414.238 172.41 413.852 172.682C413.467 172.954 413.263 173.385 413.263 173.952C413.263 174.224 413.319 174.462 413.421 174.666C413.523 174.87 413.671 175.04 413.875 175.199C414.079 175.358 414.317 175.494 414.6 175.619C414.884 175.743 415.201 175.879 415.552 176.027L416.21 176.299C416.618 176.469 416.992 176.65 417.332 176.832C417.661 177.013 417.944 177.228 418.182 177.489C418.42 177.739 418.602 178.045 418.738 178.385C418.874 178.725 418.93 179.144 418.93 179.643C418.93 180.618 418.647 181.412 418.091 182.024C417.536 182.636 416.754 183.044 415.745 183.237V185.21C415.654 185.232 415.552 185.255 415.45 185.266C415.348 185.278 415.246 185.289 415.156 185.289C415.054 185.289 414.952 185.289 414.85 185.266C414.748 185.255 414.646 185.232 414.544 185.21V183.373L414.521 183.396Z" fill="white"/>
<path d="M425.956 149.219C427.362 143.26 423.671 137.288 417.713 135.882C411.754 134.475 405.783 138.166 404.377 144.126C402.97 150.085 406.661 156.057 412.62 157.463C418.578 158.87 424.549 155.179 425.956 149.219Z" fill="#F2B430"/>
<path d="M414.521 152.786C414.464 152.786 414.419 152.809 414.385 152.809H414.283C413.931 152.809 413.603 152.798 413.319 152.775C413.036 152.752 412.764 152.718 412.515 152.673C412.265 152.628 412.027 152.571 411.8 152.503C411.574 152.435 411.336 152.355 411.098 152.276C411.12 152.027 411.166 151.766 411.245 151.505C411.324 151.244 411.404 150.995 411.494 150.757C411.88 150.882 412.288 150.995 412.696 151.097C413.104 151.199 413.603 151.244 414.192 151.244C415.133 151.244 415.836 151.063 416.289 150.689C416.743 150.326 416.981 149.816 416.981 149.17C416.981 148.852 416.935 148.58 416.833 148.365C416.731 148.15 416.584 147.957 416.391 147.798C416.199 147.639 415.949 147.492 415.654 147.356C415.36 147.22 415.008 147.073 414.6 146.902L413.773 146.562C413.433 146.426 413.115 146.268 412.832 146.098C412.549 145.927 412.299 145.723 412.084 145.485C411.868 145.247 411.71 144.975 411.596 144.646C411.483 144.329 411.426 143.944 411.426 143.49C411.426 142.606 411.698 141.88 412.231 141.325C412.764 140.758 413.535 140.418 414.532 140.27V138.604C414.702 138.559 414.895 138.536 415.122 138.536C415.348 138.536 415.552 138.559 415.745 138.604V140.202C416.221 140.225 416.697 140.282 417.162 140.361C417.627 140.44 418.023 140.543 418.352 140.667C418.296 141.143 418.171 141.619 417.978 142.096C417.672 141.982 417.309 141.88 416.913 141.79C416.516 141.699 416.051 141.665 415.518 141.665C414.793 141.665 414.238 141.801 413.852 142.073C413.467 142.345 413.263 142.776 413.263 143.343C413.263 143.615 413.319 143.853 413.421 144.057C413.523 144.261 413.671 144.431 413.875 144.59C414.079 144.748 414.317 144.885 414.6 145.009C414.884 145.134 415.201 145.27 415.552 145.417L416.21 145.689C416.618 145.859 416.992 146.041 417.332 146.222C417.661 146.404 417.944 146.619 418.182 146.88C418.42 147.129 418.602 147.435 418.738 147.775C418.874 148.115 418.93 148.535 418.93 149.034C418.93 150.009 418.647 150.802 418.091 151.415C417.536 152.027 416.754 152.435 415.745 152.628V154.6C415.654 154.623 415.552 154.645 415.45 154.657C415.348 154.668 415.246 154.68 415.156 154.68C415.054 154.68 414.952 154.68 414.85 154.657C414.748 154.645 414.646 154.623 414.544 154.6V152.764L414.521 152.786Z" fill="white"/>
<path d="M425.947 118.608C427.353 112.648 423.663 106.676 417.704 105.27C411.745 103.863 405.774 107.554 404.368 113.514C402.961 119.473 406.652 125.445 412.611 126.852C418.57 128.258 424.54 124.567 425.947 118.608Z" fill="#F2B430"/>
<path d="M414.521 122.177C414.464 122.188 414.419 122.2 414.385 122.2H414.283C413.931 122.2 413.603 122.188 413.319 122.166C413.036 122.143 412.764 122.109 412.515 122.064C412.265 122.018 412.027 121.961 411.8 121.893C411.574 121.825 411.336 121.746 411.098 121.667C411.12 121.417 411.166 121.157 411.245 120.896C411.324 120.635 411.404 120.386 411.494 120.148C411.88 120.272 412.288 120.386 412.696 120.488C413.104 120.59 413.603 120.635 414.192 120.635C415.133 120.635 415.836 120.454 416.289 120.08C416.743 119.717 416.981 119.207 416.981 118.56C416.981 118.243 416.935 117.971 416.833 117.756C416.731 117.54 416.584 117.347 416.391 117.189C416.199 117.03 415.949 116.883 415.654 116.747C415.36 116.611 415.008 116.463 414.6 116.293L413.773 115.953C413.433 115.817 413.115 115.658 412.832 115.488C412.549 115.318 412.299 115.114 412.084 114.876C411.868 114.638 411.71 114.366 411.596 114.037C411.483 113.72 411.426 113.334 411.426 112.881C411.426 111.996 411.698 111.271 412.231 110.715C412.764 110.149 413.535 109.808 414.532 109.661V107.995C414.702 107.949 414.895 107.927 415.122 107.927C415.348 107.927 415.552 107.949 415.745 107.995V109.593C416.221 109.616 416.697 109.672 417.162 109.752C417.627 109.831 418.023 109.933 418.352 110.058C418.296 110.534 418.171 111.01 417.978 111.486C417.672 111.373 417.309 111.271 416.913 111.18C416.516 111.089 416.051 111.055 415.518 111.055C414.793 111.055 414.238 111.192 413.852 111.464C413.467 111.736 413.263 112.166 413.263 112.733C413.263 113.005 413.319 113.243 413.421 113.448C413.523 113.652 413.671 113.822 413.875 113.98C414.079 114.139 414.317 114.275 414.6 114.4C414.884 114.525 415.201 114.661 415.552 114.808L416.21 115.08C416.618 115.25 416.992 115.431 417.332 115.613C417.661 115.794 417.944 116.01 418.182 116.27C418.42 116.52 418.602 116.826 418.738 117.166C418.874 117.506 418.93 117.926 418.93 118.424C418.93 119.399 418.647 120.193 418.091 120.805C417.536 121.417 416.754 121.825 415.745 122.018V123.991C415.654 124.013 415.552 124.036 415.45 124.047C415.348 124.059 415.246 124.07 415.156 124.07C415.054 124.07 414.952 124.07 414.85 124.047C414.748 124.036 414.646 124.013 414.544 123.991V122.154L414.521 122.177Z" fill="white"/>
<path d="M488.494 119.547L552.028 118.821L517.988 160.949L503.491 137.606L496.962 145.769L496.599 128.786L488.494 119.547Z" fill="#70A1BD"/>
<mask id="mask6_21_4" style="mask-type:luminance" maskUnits="userSpaceOnUse" x="488" y="118" width="65" height="44">
<path d="M488.494 119.547L552.028 118.821L521.106 161.142L503.491 137.606L496.962 145.769L496.599 128.786L488.494 119.547Z" fill="white"/>
</mask>
<g mask="url(#mask6_21_4)">
<path d="M541.622 123.787L503.49 137.606L498.174 153.931L488.97 145.213L496.598 128.786L541.622 123.787Z" fill="black"/>
</g>
<path d="M615.494 142.447C591.373 142.447 571.819 162.003 571.819 186.128C571.819 210.252 591.373 229.808 615.494 229.808C639.616 229.808 659.169 210.252 659.169 186.128C659.169 162.003 639.616 142.447 615.494 142.447ZM615.494 213.109C600.588 213.109 588.505 201.024 588.505 186.116C588.505 171.208 600.588 159.123 615.494 159.123C630.4 159.123 642.483 171.208 642.483 186.116C642.483 201.024 630.4 213.109 615.494 213.109Z" fill="#F1416C"/>
<path d="M160.282 109.378C142.429 109.378 127.965 123.843 127.965 141.699C127.965 159.554 142.44 174.02 160.282 174.02C178.123 174.02 192.599 159.543 192.599 141.699C192.599 123.855 178.123 109.378 160.282 109.378ZM160.282 161.674C149.252 161.674 140.309 152.73 140.309 141.699C140.309 130.668 149.252 121.723 160.282 121.723C171.311 121.723 180.254 130.668 180.254 141.699C180.254 152.73 171.311 161.674 160.282 161.674Z" fill="#F1416C"/>
<path d="M128.837 182.75C110.984 182.75 96.5205 197.215 96.5205 215.071C96.5205 232.926 110.984 247.392 128.837 247.392C146.69 247.392 161.154 232.926 161.154 215.071C161.154 197.215 146.69 182.75 128.837 182.75ZM128.837 235.046C117.808 235.046 108.865 226.101 108.865 215.071C108.865 204.04 117.808 195.095 128.837 195.095C139.867 195.095 148.81 204.04 148.81 215.071C148.81 226.101 139.867 235.046 128.837 235.046Z" fill="#F1416C"/>
<path d="M128.837 189.744C114.85 189.744 103.503 201.081 103.503 215.082C103.503 229.083 114.838 240.42 128.837 240.42C142.836 240.42 154.172 229.083 154.172 215.082C154.172 201.081 142.825 189.744 128.837 189.744ZM128.837 230.727C120.188 230.727 113.183 223.721 113.183 215.071C113.183 206.421 120.188 199.415 128.837 199.415C137.486 199.415 144.491 206.421 144.491 215.071C144.491 223.721 137.486 230.727 128.837 230.727Z" fill="#F1416C"/>
<path d="M464.248 65.697C451.711 65.697 441.543 75.8661 441.543 88.4046C441.543 100.943 451.711 111.124 464.248 111.124C476.784 111.124 486.952 100.954 486.952 88.4046C486.952 75.8548 476.784 65.697 464.248 65.697ZM464.248 102.44C456.494 102.44 450.214 96.159 450.214 88.4046C450.214 80.6503 456.494 74.3697 464.248 74.3697C472.001 74.3697 478.281 80.6503 478.281 88.4046C478.281 96.159 472.001 102.44 464.248 102.44Z" fill="#F1416C"/>
<path d="M464.248 70.606C454.42 70.606 446.451 78.5757 446.451 88.4047C446.451 98.2338 454.42 106.204 464.248 106.204C474.075 106.204 482.044 98.2338 482.044 88.4047C482.044 78.5757 474.075 70.606 464.248 70.606ZM464.248 99.4128C458.172 99.4128 453.252 94.4926 453.252 88.4161C453.252 82.3396 458.172 77.4194 464.248 77.4194C470.323 77.4194 475.243 82.3396 475.243 88.4161C475.243 94.4926 470.323 99.4128 464.248 99.4128Z" fill="#F1416C"/>
<mask id="mask7_21_4" style="mask-type:luminance" maskUnits="userSpaceOnUse" x="97" y="76" width="560" height="495">
<path d="M656.438 303.271C656.166 354.944 658.002 409.055 640.342 458.438C621.865 510.089 579.993 538.907 528.326 554.2C447.563 578.098 366.141 571.217 284.063 560.458C241.317 554.858 196.611 547.047 162.957 520.11C104.682 473.459 101.202 390.338 98.3344 321.909C95.1038 244.671 107.55 159.713 175.834 112.314C215.167 85.0037 262.82 79.7661 309.488 77.4987C366.583 74.7325 423.861 75.9909 480.775 81.2739C525.368 85.4118 571.979 92.69 602.289 127.993C630.333 160.643 646.202 202.68 652.538 244.887C655.44 264.227 656.528 283.749 656.426 303.283L656.438 303.271Z" fill="white"/>
</mask>
<g mask="url(#mask7_21_4)">
<path d="M241.962 113.72C241.362 113.64 240.749 113.572 240.137 113.55C238.494 113.47 236.782 113.606 235.342 114.4C235.082 114.536 234.832 114.717 234.696 114.978C234.402 115.59 234.946 116.259 235.467 116.713C237.031 118.096 239.004 119.989 240.965 120.76C242.767 121.474 245.079 120.907 246.825 120.307C249.036 119.536 250.94 119.048 253.298 118.651C253.592 118.606 253.91 118.549 254.125 118.345C254.522 117.971 254.397 117.28 254.012 116.905C253.626 116.52 253.082 116.373 252.561 116.237C250.962 115.817 249.364 115.409 247.766 114.99C245.85 114.491 243.912 113.992 241.951 113.72H241.962Z" fill="#D6906F"/>
<path d="M258.501 103.868C256.857 101.827 257.186 98.8459 259.227 97.2134L261.494 95.3881C263.534 93.7443 266.515 94.0731 268.147 96.1137C269.791 98.1543 269.462 101.136 267.422 102.768L265.155 104.594C263.114 106.237 260.133 105.909 258.501 103.868Z" fill="black"/>
<path d="M239.537 124.784C238.551 125.351 236.635 126.224 234.98 126.78C234.153 127.063 233.563 127.947 233.813 128.594C234.674 130.861 237.327 132.732 238.902 132.108C247.993 129.988 256.404 123.254 261.969 117.642C263.556 116.044 263.556 113.595 264.611 111.793C265.676 109.967 267.331 108.437 266.9 106.419C266.685 105.455 266.039 104.718 265.132 104.31C264.339 103.947 263.307 103.29 262.117 103.653C261.255 103.913 260.405 104.594 259.884 105.353C251.133 118.243 243.64 122.415 239.548 124.773L239.537 124.784Z" fill="black"/>
<path d="M283.326 174.293C277 152.979 268.714 132.494 258.626 112.79L275.856 98.9368C292.246 112.836 310.61 125.193 330.605 136.28L283.326 174.293Z" fill="#F2B430"/>
<path d="M301.417 148.671C288.358 159.169 280.231 170.732 283.257 174.508C286.284 178.271 299.331 172.818 312.378 162.321C325.436 151.823 333.563 140.259 330.537 136.484C327.51 132.72 314.463 138.173 301.417 148.671Z" fill="#E8654B"/>
<path d="M260.938 118.731L260.371 118.017C255.882 112.427 256.767 104.265 262.355 99.7756C267.943 95.2862 276.104 96.1705 280.593 101.76L281.16 102.474L260.938 118.731Z" fill="#70A1BD"/>
<mask id="mask8_21_4" style="mask-type:luminance" maskUnits="userSpaceOnUse" x="282" y="135" width="50" height="41">
<path d="M301.417 148.671C288.358 159.169 280.231 170.732 283.257 174.508C286.284 178.271 299.331 172.818 312.378 162.321C325.436 151.823 333.563 140.259 330.537 136.484C327.51 132.72 314.463 138.173 301.417 148.671Z" fill="white"/>
</mask>
<g mask="url(#mask8_21_4)">
<path d="M308.546 157.775C304.545 160.983 298.832 160.507 295.772 156.698C292.711 152.888 293.47 147.197 297.472 143.989C301.473 140.781 307.186 141.257 310.247 145.066C313.307 148.875 312.548 154.566 308.546 157.775Z" fill="#1B2258"/>
</g>
<path d="M301.417 148.671C288.358 159.169 280.231 170.732 283.257 174.508C286.284 178.271 299.331 172.818 312.378 162.321C325.436 151.823 333.563 140.259 330.537 136.484C327.51 132.72 314.463 138.173 301.417 148.671Z" stroke="white" stroke-width="2" stroke-miterlimit="10"/>
<mask id="mask9_21_4" style="mask-type:luminance" maskUnits="userSpaceOnUse" x="258" y="98" width="73" height="77">
<path d="M283.326 174.293C277 152.979 268.714 132.494 258.626 112.79L275.856 98.9368C292.246 112.836 310.61 125.193 330.605 136.28L283.326 174.293Z" fill="white"/>
</mask>
<g mask="url(#mask9_21_4)">
<path d="M323.532 132.154C320.449 128.322 308.399 132.913 296.599 142.391C284.799 151.88 277.737 162.672 280.809 166.504" stroke="#1B2258" stroke-miterlimit="10"/>
</g>
<path d="M246.35 139.942C246.996 139.114 246.792 137.663 245.817 137.266C246.916 137.833 248.299 138.128 249.387 137.527C250.476 136.926 250.872 135.169 249.864 134.432C251.02 135.339 252.947 134.999 253.717 133.752C254.5 132.505 253.944 130.623 252.618 129.988C254.25 130.419 256.755 130.952 257.571 128.889C258.331 126.961 255.758 125.261 254.375 124.376C251.62 122.608 248.877 120.828 246.123 119.059C244.332 117.903 242.541 116.747 240.614 115.851C239.31 115.239 237.95 114.752 236.692 114.06C234.901 113.074 233.348 111.713 231.818 110.364C213.908 94.606 201.247 74.5965 189.356 54.3037C187.429 51.0046 185.4 47.6716 182.487 45.2002C179.573 42.7288 175.561 41.2437 171.877 42.2413C168.114 43.2729 165.37 46.7533 164.362 50.5172C163.353 54.2923 163.829 58.3056 164.747 62.092C171.866 91.2957 196.372 110.92 220.732 126.111C222.738 127.358 224.745 128.605 226.74 129.863C228.315 130.85 229.902 131.836 231.251 133.117C232.328 134.137 233.246 135.328 234.357 136.314C236.216 137.947 238.46 138.831 240.75 139.624C242.303 140.169 244.989 141.642 246.35 139.908V139.942Z" fill="#D6906F"/>
<path d="M253.06 130.351C252.629 130.068 249.659 127.88 249.229 127.596" stroke="#171616" stroke-width="0.75" stroke-miterlimit="10" stroke-linecap="round"/>
<path d="M249.863 134.444C249.047 133.933 247.369 132.505 246.542 131.995" stroke="#171616" stroke-width="0.75" stroke-miterlimit="10" stroke-linecap="round"/>
<path d="M246.338 137.561C245.874 137.221 244.366 136.087 243.901 135.747" stroke="#171616" stroke-width="0.75" stroke-miterlimit="10" stroke-linecap="round"/>
</g>
<path d="M284.345 478.186C283.381 473.981 280.015 470.704 274.211 471.044C256.585 472.076 237.575 487.097 232.327 503.49C240.443 499.307 249.738 496.155 258.886 495.407C266.605 494.772 272.601 496.62 279.391 491.394C283.699 488.084 285.365 482.619 284.345 478.186ZM252.323 483.322C252.98 486.848 245.782 489.659 250.6 482.222C250.69 482.313 251.926 481.349 252.323 483.322ZM271.354 490.067C270.3 492.085 260.937 487.018 266.56 485.952C267.614 486.281 272.59 487.029 271.354 490.067ZM275.855 485.805C275.741 486.995 269.246 486.859 270.38 483.821C271.4 483.231 275.424 483.095 275.855 485.805Z" fill="#1C6652"/>
<path d="M258.897 485.487C220.504 500.078 231.25 516.97 219.45 543.622" stroke="#1C0C03" stroke-width="0.5" stroke-miterlimit="10"/>
<path d="M234.991 434.052C232.293 431.15 228.36 429.314 224.37 428.872C214.485 427.772 204.397 435.197 202.504 444.958C202.062 447.226 202.017 449.55 201.971 451.851C201.461 479.286 200.52 509.431 212.071 534.961C214.213 529.1 215.778 522.139 219.065 516.822C221.978 512.118 225.367 507.889 227.736 502.731C232.849 492.199 235.886 480.771 237.473 469.208C238.743 459.957 241.237 446.897 237.575 438.02C236.963 436.535 236.079 435.209 234.991 434.041V434.052ZM215.472 463.63C214.157 464.05 208.353 455.037 213.692 456.93C214.497 457.542 217.818 462.315 215.472 463.63ZM219.144 447.725C220.278 454.98 211.3 448.405 212.377 443.655C214.78 440.174 218.781 443.02 219.144 447.725ZM225.129 496.201C224.608 498.661 219.609 503.366 220.845 497.221C221.593 493.378 225.764 491.802 225.129 496.201Z" fill="#1C6652"/>
<path d="M219.189 467.485L210.688 551.06" stroke="#1C0C03" stroke-width="0.5" stroke-miterlimit="10"/>
<path d="M199.841 499.08C197.529 491.371 191.555 485.238 183.586 483.436C177.216 481.996 145.386 481.214 155.259 496.564C156.529 498.536 158.592 499.851 160.689 500.894C163.953 502.527 167.467 503.683 171.072 504.295C176.184 505.168 181.5 504.987 186.477 506.461C193.323 508.49 195.398 516.38 197.903 522.491C199.41 521.595 199.784 519.623 200.022 517.888C200.702 512.809 201.383 507.651 200.634 502.572C200.453 501.382 200.192 500.203 199.852 499.069L199.841 499.08Z" fill="#1C6652"/>
<path d="M197.722 542.115C197.688 536.753 199.06 519.838 198.085 514.566C197.167 509.601 195.784 504.59 192.882 500.452C189.98 496.314 185.321 493.151 180.266 493.117" stroke="#1C0C03" stroke-width="0.5" stroke-miterlimit="10"/>
<path d="M189.062 539.859H228.973L224.462 571.114H193.958L189.062 539.859Z" fill="#447CA8"/>
</g>
<defs>
<filter id="filter0_d_21_4" x="61.7607" y="41.0725" width="628.565" height="564.253" filterUnits="userSpaceOnUse" color-interpolation-filters="sRGB">
<feFlood flood-opacity="0" result="BackgroundImageFix"/>
<feColorMatrix in="SourceAlpha" type="matrix" values="0 0 0 0 0 0 0 0 0 0 0 0 0 0 0 0 0 0 127 0" result="hardAlpha"/>
<feOffset/>
<feGaussianBlur stdDeviation="17.5"/>
<feComposite in2="hardAlpha" operator="out"/>
<feColorMatrix type="matrix" values="0 0 0 0 0 0 0 0 0 0 0 0 0 0 0 0 0 0 0.1 0"/>
<feBlend mode="normal" in2="BackgroundImageFix" result="effect1_dropShadow_21_4"/>
<feBlend mode="normal" in="SourceGraphic" in2="effect1_dropShadow_21_4" result="shape"/>
</filter>
</defs>
</svg>
